<?xml version="1.0" encoding="UTF-8"?>
<!-- Created with Inkscape (http://www.inkscape.org/) -->
<svg width="132.78mm" height="72.189mm" version="1.1" viewBox="0 0 132.78 72.189" xmlns="http://www.w3.org/2000/svg">
 <g transform="translate(-9.1566 -146.61)">
  <g stroke-width=".26458">
   <path d="m68.482 217.47c-0.0172-0.10915-0.0152-0.29397 5e-3 -0.41072 0.15258-0.90104-5.5-8.3275-7.5678-9.9426-7.3804-5.7648-26.126-5.854-37.385-0.17784-5.2038 2.6235-12.893 8.224-13.507 9.8374-0.13124 0.34519-0.30517 0.62761-0.38651 0.62761-0.20833 0-0.0308-1.116 0.24852-1.5622 0.15899-0.25398 0.13645-0.31217-0.0712-0.18383-0.22811 0.14098-0.30414-8.42-0.3051-34.355-0.0013-34.543-0.0013-34.543 14.579-34.543 13.787 0 14.569 0.0252 14.376 0.46302-0.5558 1.261 0.01527 3.6483 1.3075 5.4658 4.5294 6.3707 15.112 3.6712 15.112-3.8548 0-2.0733 0-2.0733 4.542-2.0737 3.3863-2.5e-4 4.576 0.0838 4.6755 0.33039 0.10676 0.26458 0.13763 0.26458 0.15434 0 0.02296-0.36362 53.994-0.50926 54.356-0.14668 0.28181 0.28181 0.98511 0.33122 0.81583 0.0573-0.082-0.13275-0.0231-0.24136 0.13103-0.24136 0.15411 0 0.28202 0.14883 0.28425 0.33073 3e-3 0.22049 0.0895 0.19844 0.26053-0.0661 0.22799-0.35277 0.25738-0.35277 0.26459 0 7e-3 0.35278 0.0366 0.35278 0.26458 0 0.22798-0.35277 0.25738-0.35277 0.26458 0 7e-3 0.32209 0.0507 0.32959 0.23437 0.0398 0.25803-0.40716 3.3683-0.37123 3.9328 0.0454 0.21314 0.15732 0.33073 0.13852 0.33073-0.0529 0-0.39992 0.86564-0.3776 1.3088 0.0337 0.28506 0.26458 0.31897 0.26458 0.1696 0-0.14112-0.24995 0.23716-0.33073 1.5487-0.33073 1.2098 0 1.7366 0.10017 1.7395 0.33073 3e-3 0.2198 0.0887 0.19761 0.25651-0.0661 0.21355-0.3357 0.33954-0.34288 0.81739-0.0466 0.31071 0.19264 0.48591 0.22241 0.38933 0.0661-0.10248-0.16582 0.0421-0.28412 0.34714-0.28412 0.2875 0 0.58279 0.14883 0.65618 0.33073 0.10677 0.26458 0.13763 0.26458 0.15434 0 0.0146-0.2311 0.57884-0.33073 1.873-0.33073 1.3031 0 1.8533 0.098 1.8561 0.33073 3e-3 0.26452 0.0461 0.26451 0.2141-7e-5 0.25657-0.40408 2.4774-0.37058 2.7544 0.0416 0.13352 0.19867 0.19566 0.18569 0.19844-0.0415 3e-3 -0.20879 0.39426-0.33073 1.0624-0.33073 1.0583 0 1.0583 0 1.0583 2.4079 0 2.6907 0.41279 2.4659-3.5493 1.9329-1.4707-0.19785-1.6121 0.0384-1.8367 3.0676-0.31082 4.1921-1.2191 7.8541-2.916 11.756-1.3897 3.196-1.3903 3.1965-2.8774 2.5591-0.69082-0.29612-1.2545-0.5724-1.2526-0.61395 2e-3 -0.0416 0.24253-0.83841 0.53478-1.7708 0.82918-2.6454 1.312-6.2159 1.3092-9.6818-4e-3 -4.3718-9e-3 -4.3855-1.6813-4.3405-0.74619 0.02-1.4758 9e-3 -1.6213-0.0257-1.3618-0.31972-1.7878 0.46749-1.3266 2.4515 0.8518 3.6643 0.70582 10.761-0.25975 12.628-0.24342 0.47072-0.61509 1.5182-0.82595 2.3277-0.66348 2.5473-4.3076 10.118-4.8637 10.105-0.70917-0.0171-0.77037-0.50791-0.24893-1.9967 0.7889-2.2524 1.5718-6.4658 1.5718-8.4588 0-1.7079 1e-3 -1.7104 0.76135-1.7104 1.3139 0 1.4446-0.43637 1.2902-4.3054-0.12877-3.2256-0.89263-7.6512-1.4845-8.6008-0.30567-0.49041-3.2041-0.12461-3.4174 0.43131-0.0868 0.22627 0.21479 1.4886 0.67028 2.8051 1.0136 2.9297 1.71 6.3565 1.6004 7.8751-0.10173 1.4096-1.7423 1.7773-2.1047 0.47175-0.10099-0.3638-0.45214-1.6735-0.78034-2.9104-1.1969-4.5107-2.2749-6.4089-3.5256-6.2074-1.9281 0.31059-1.9695 0.55674-0.55711 3.3117 2.2456 4.3802 2.6081 5.8955 2.9486 12.324 0.32451 6.1281-0.50154 7.6627-1.4405 2.676-0.30825-1.6371-0.81189-3.7424-1.1192-4.6785-0.55876-1.7019-0.55876-1.7019 1e-3 -2.1245 0.69069-0.52099 0.50377-1.1614-1.51-5.173-1.6337-3.2547-2.2714-4.0993-2.744-3.6344-0.18496 0.1819-0.61013 0.33073-0.94483 0.33073-0.7836 0-0.81474 0.9207-0.0626 1.8521 1.6572 2.0522 3.8068 5.9218 3.5956 6.4724-0.40255 1.049-1.1931 0.59797-2.5405-1.4495-2.4965-3.7935-3.2776-4.5092-4.3656-3.9996-1.2077 0.56564-1.1989 0.60187 0.61132 2.5054 1.7519 1.8422 3.4762 4.2146 3.4762 4.7827 0 0.2086 0.46665 1.2516 1.037 2.3178 0.91977 1.7194 2.4026 5.6136 2.4026 6.3097 0 0.53377-0.55218 0.2323-0.85827-0.46859-0.48161-1.1028-1.771-3.1957-3.0263-4.9122-0.934-1.2772-1.0746-1.6199-0.827-2.0164 0.38804-0.62134-0.14581-1.3754-2.7747-3.9193-2.2012-2.1301-2.17-2.1161-3.097-1.3843-0.66146 0.52215-0.66146 0.52215 0.52917 1.4967 1.8066 1.4788 4.0018 3.8234 3.891 4.156-0.23302 0.69994-1.081 0.3815-2.5683-0.96441-2.127-1.9248-3.2544-2.53-3.8273-2.0546-0.66829 0.55463-0.43203 0.87851 1.9754 2.708 1.2369 0.93998 2.3988 2.0151 2.5819 2.3892 0.18314 0.37408 0.77845 1.0709 1.3229 1.5484 1.0354 0.90812 3.764 4.1974 3.7666 4.5404 3e-3 0.41211-0.55278 0.17361-1.1225-0.48164-0.32523-0.37405-1.5151-1.4077-2.6441-2.297-1.3113-1.0329-2.0528-1.804-2.0528-2.135 0-0.5691-0.0625-0.62556-2.8678-2.5889-1.7584-1.2307-2-1.3278-2.5586-1.0289-0.77568 0.41513-0.64422 0.75721 0.60188 1.5662 0.54342 0.3528 1.5505 1.0076 2.238 1.4552 1.236 0.80469 1.5265 1.2815 0.98456 1.6164-0.15347 0.0948-1.338-0.43872-2.6323-1.1857-2.08-1.2004-2.4164-1.3187-2.8967-1.0188-0.81454 0.5087-0.5881 0.75254 2.0412 2.198 1.3259 0.72891 2.6266 1.5423 2.8904 1.8075 0.26378 0.26522 1.7595 1.3057 3.3239 2.3122 3.9745 2.5571 3.8848 2.9914-0.19844 0.96048-1.0186-0.50665-2.2974-1.1068-2.8416-1.3336-0.69685-0.29044-0.94374-0.53165-0.83478-0.81559 0.26753-0.69717-5.3316-3.2992-5.8925-2.7384-0.67764 0.67764-0.2822 1.0592 2.2658 2.1862 1.6849 0.74528 2.395 1.1953 2.4005 1.5214 0.0111 0.6599-0.48043 0.58523-3.1832-0.48356-1.9104-0.75546-2.471-0.88248-2.7764-0.62907-0.97008 0.8051-0.36194 1.2577 3.2361 2.4087 0.99287 0.3176 1.9838 0.72607 2.2021 0.90772 0.21829 0.18165 1.9744 0.78703 3.9026 1.3453 1.9281 0.55827 3.5057 1.1172 3.5057 1.2422 2e-5 0.12491-0.26786 0.16686-0.59528 0.0932-0.32743-0.0736-1.9943-0.34658-3.7042-0.60651-2.0369-0.30965-3.1089-0.58536-3.1089-0.79962 0-0.18698-0.76474-0.50192-1.7859-0.73548-0.98227-0.22467-2.3721-0.58595-3.0885-0.80286-1.1956-0.36199-1.3307-0.35734-1.6452 0.0565-0.80734 1.0625-0.14328 1.4298 3.5082 1.9407 2.044 0.28594 2.2365 0.36307 2.1645 0.86726-0.0892 0.62446-0.12148 0.6272-3.7996 0.32294-2.3807-0.19694-2.3998-0.1937-2.6972 0.459-0.49468 1.0857-0.0575 1.1666 7.4099 1.3708 3.8927 0.10649 7.0776 0.26922 7.0776 0.36161 0 0.36879-7.187 1.1753-7.4001 0.83047-0.20279-0.32812-5.5775-0.19476-6.5057 0.16142-0.48009 0.18423-0.50298 1.5742-0.0289 1.7561 0.19402 0.0745 1.0572-0.0198 1.9182-0.20957 3.2009-0.70529 4.3436-0.74556 4.3436-0.15308 0 0.38701-0.26506 0.59845-0.99219 0.7915-0.5457 0.14489-1.8256 0.47942-2.8443 0.74341-1.6791 0.43515-1.8599 0.5474-1.9358 1.202-0.10931 0.94261 0.20446 0.93526 3.6137-0.0847 1.483-0.44367 2.8164-0.73251 2.9631-0.64187 0.23569 0.14566 1.7424-0.27013 5.8101-1.6034 3.5413-1.1607 1.0454 0.51337-3.5334 2.37-0.56095 0.22746-1.3083 0.34116-1.6609 0.25268-1.1353-0.28494-5.9182 1.6799-5.9182 2.4313 0 0.9929 0.36615 0.9751 2.9599-0.14392 2.7428-1.1833 3.0026-1.237 3.2217-0.66615 0.11254 0.29328-0.46701 0.70942-2.2004 1.58-2.529 1.2701-2.7465 1.4529-2.4985 2.099 0.25377 0.66131 0.7925 0.51426 3.3052-0.90217 1.2907-0.7276 2.5467-1.3229 2.7911-1.3229 0.49226 0 1.9595-0.81311 4.6562-2.5804 2.8768-1.8853 2.6356-1.1538-0.47865 1.4516-2.1549 1.8028-2.9695 2.3431-3.2198 2.1353-0.24625-0.20437-0.89653 0.0637-2.4528 1.0113-3.0858 1.8789-3.2655 2.0379-3.0543 2.703 0.24675 0.77746 0.2815 0.7669 2.9118-0.88445 2.4485-1.5372 2.9068-1.6928 3.1465-1.0681 0.10164 0.26488-0.53699 0.86328-2.0222 1.8948-2.7711 1.9247-2.6503 1.8033-2.4438 2.4539 0.28419 0.89543 0.92023 0.66039 3.516-1.2993 1.3471-1.017 2.5486-1.849 2.67-1.849 0.2655 0 2.9632-2.8111 4.3798-4.5641 1.7292-2.1397 2.0288-1.5148 0.47958 1.0004-2.127 3.4533-3.0674 4.6064-3.64 4.463-0.36135-0.0905-0.80849 0.12078-1.3492 0.63753-0.44482 0.4251-1.6042 1.398-2.5765 2.1621-1.4602 1.1475-1.7382 1.4875-1.5976 1.954 0.4184 1.3887 0.89192 1.1836 3.9299-1.7022 2.0328-1.931 2.2782-2.0604 2.7742-1.4628 0.32372 0.39005-2.7153 4.1343-4.0829 5.0304-0.72636 0.47593-0.3972 2.0067 0.43149 2.0067 0.5443 0 3.4155-2.9324 4.6146-4.7131 0.48272-0.71681 1.0402-1.3656 1.2389-1.4419 0.55953-0.2147 2.0487-3.206 2.9805-5.987 1.3894-4.1467 1.933-3.2318 0.95016 1.5992-0.76906 3.7802-1.3538 5.135-2.1795 5.0495-0.50576-0.0524-0.74879 0.10536-0.99498 0.6457-0.32693 0.71753-2.5964 3.9633-3.9012 5.5794-0.65151 0.80695-0.66895 0.89586-0.26362 1.3438 0.23873 0.26379 0.43405 0.61907 0.43405 0.78951 0 1.5874 2.9307-1.8498 4.8679-5.7094 0.72913-1.4526 0.91585-1.5691 1.7768-1.1084 0.73813 0.39504 0.1099 2.11-2.3465 6.4053-1.1756 2.0558-1.1756 2.0558-0.37127 2.8786 0.49016 0.50135 0.9622 0.76218 1.2084 0.66771 0.5591-0.21455 2.6215-4.4057 3.4873-7.0866 0.39423-1.2208 0.86416-2.4577 1.0443-2.7488 0.73578-1.1888 1.133-6.6962 0.68091-9.4397-0.1769-1.0734-0.14015-1.2543 0.27695-1.3634 0.83312-0.21786 2.1325 4.7189 2.443 9.2818 0.13055 1.9182 0.13055 1.9182-0.76134 1.9182-0.87521 0-0.89741 0.0285-1.1867 1.5214-0.40398 2.0844-1.5044 5.6675-2.2772 7.415-0.80321 1.8162-0.8091 1.7515 0.21944 2.4102 0.85989 0.55069 0.85989 0.55069-0.54478 0.55514-0.99526 3e-3 -1.3496-0.0846-1.2159-0.301 0.12928-0.20918 0.0717-0.23237-0.18283-0.0736-0.56128 0.35023-1.0331 0.36765-1.0331 0.0381 0-0.20272-0.0986-0.19545-0.3175 0.0234-0.41831 0.41831-1.9829 0.40869-2.1531-0.0132-0.0986-0.24422-0.13891-0.23575-0.15434 0.0324-0.0177 0.30778-0.0891 0.30778-0.46855 0-0.38612-0.3132-0.41551-0.30856-0.2138 0.0337 0.19762 0.33536 0.16813 0.34362-0.19023 0.0533-0.28513-0.23098-0.4803-0.25266-0.59558-0.0661-0.23612 0.38205-3.3152 0.3639-3.3152-0.0196 0-0.21658-0.0989-0.2149-0.36533 6e-3 -0.35376 0.2936-18.156 0.4288-18.156 0.13789 0-0.0654 0.14883-0.35903 0.33073-0.65254 0.34609-0.55843-0.0153-1.0331-0.79375-1.0426-0.39392-5e-3 -0.44367 0.68867-0.0661 0.92199 0.14552 0.0899 0.26458 0.32942 0.26458 0.53218 0 0.5126-15.766 0.57146-15.952 0.0595-0.0939-0.25921-0.23489-0.25846-0.67872 4e-3 -0.60498 0.35721-2.664 0.45752-2.7153 0.1323zm22.511-9.4473c0.39664-0.47793 0.14192-0.93763-0.51955-0.93763-0.27387 0-0.57475 0.12428-0.66862 0.27617-0.17544 0.28387 0.31185 1.0468 0.66862 1.0468 0.10988 0 0.34368-0.17338 0.51955-0.38529zm-42.853-18.949c0-0.10765 0.23812-0.13345 0.52917-0.0573 0.59675 0.15605 0.65016 3e-3 0.25629-0.73259-0.25178-0.47044-0.22099-0.48624 0.398-0.20421 0.79336 0.36148 1.1461 0.1336 0.67394-0.43535-0.28198-0.33976-0.24625-0.40327 0.22688-0.40327 0.73015 0 0.72369-0.48624-0.01005-0.75768-0.48923-0.18097-0.5083-0.23575-0.13229-0.38004 0.61891-0.2375 0.54704-0.71436-0.10766-0.71436-0.42659 0-0.51003-0.11648-0.37904-0.52917 0.19353-0.60975-0.34298-0.72647-0.91207-0.19844-0.29112 0.27012-0.32626 0.24503-0.19174-0.13692 0.14445-0.41013 0.0028-0.46192-1.1517-0.42105-0.72401 0.0256-1.3164 0.14303-1.3164 0.2609 0 0.11788-0.16729 0.15012-0.37175 0.0717-0.25121-0.0964-0.42939 0.11978-0.54952 0.66673-0.09777 0.44516-0.2789 0.87189-0.4025 0.94828-0.41597 0.25708 0.2459 1.8457 1.0562 2.535 0.74276 0.63192 2.3842 0.96775 2.3842 0.4878zm22.851-2.2296c-0.341-1.1433-1.1576-1.7305-1.8111-1.3023-0.66049 0.43276-0.63555 1.6992 0.0335 1.6992 0.20588 0 0.43727 0.16402 0.5142 0.36449 0.24174 0.62995 1.4595-0.10391 1.2634-0.76137zm-51.955-0.27288c0-0.81949-0.6872-1.1377-1.2473-0.57756-0.56013 0.56012-0.24193 1.2473 0.57756 1.2473 0.54024 0 0.66976-0.12952 0.66976-0.66976zm15.346 0.30528c0-0.5862-0.76066-1.0974-1.1112-0.74677-0.21704 0.21704-0.20551 0.40299 0.04361 0.70316 0.42045 0.50662 1.0676 0.53305 1.0676 0.0436zm6.6146-6.792c0-0.69409-0.50981-0.91381-0.99485-0.42877-0.33402 0.33402-0.35109 0.49179-0.08756 0.80933 0.41244 0.49696 1.0824 0.26141 1.0824-0.38056zm41.487-8.8257c1.3071-0.6801 1.9735-1.6359 2.0866-2.9931 0.31505-3.7801-4.268-5.1461-6.4653-1.927-1.9234 2.8178 1.3501 6.4959 4.3788 4.9201zm6.044-14.051c0.15968-0.41611-0.32101-1.1872-0.74007-1.1872-0.41663 0-0.56171 0.78356-0.22108 1.194 0.41754 0.50311 0.76644 0.50066 0.96115-7e-3zm30.659 59.998c1.3126-3.1258 2.228-6.7427 2.2377-8.8419 8e-3 -1.8153 0.17314-2.0722 1.3286-2.0722 1.4319 0 1.661 1.3009 1.0568 6.0001-0.6305 4.9035-0.8917 5.377-2.9666 5.377-1.6605 0-1.831-0.0476-1.6566-0.46302zm8.0238-3.175c0.23353-7.937-1.3422-14.276-4.8693-19.588-0.9053-1.3635-0.93375-1.8824-0.10445-1.9055 1.0099-0.0282 9.594 10.729 8.9452 11.21-0.052 0.0385-0.54181 0.27555-1.0885 0.5267-1.0755 0.49411-1.106 0.76095-0.30732 2.685 0.52877 1.2738 1.134 4.8722 1.3304 7.9092 0.18106 2.8006 0.18106 2.8006-1.916 2.8006-2.0971 0-2.0971 0-1.99-3.638zm9.0396 2.1167c-0.84104-4.2836-1.7655-7.1823-3.3488-10.501-0.34282-0.71846-0.6233-1.4016-0.6233-1.518 0-0.28127 2.014-1.544 2.4421-1.5313 1.3311 0.0398 7.0829 11.541 7.0829 14.163 0 0.90799 0 0.90799-2.6271 0.90799-2.6271 0-2.6271 0-2.9258-1.5214zm3.4424-13.833c-1.088-1.1678-2.0826-2.3099-2.2102-2.5379-0.74912-1.3386-10.895-8.8048-12.008-8.8363-0.67934-0.0192-1.4006-0.94811-1.0746-1.3839 0.45598-0.60959 5.2078 0.67361 13.235 3.5741 3.4222 1.2365 3.3728 1.1806 2.4588 2.7793-0.70707 1.2367-0.42403 1.8627 1.1138 2.4636 0.51137 0.19982 1.0238 6.0734 0.52917 6.0655-0.0364-5.3e-4 -0.95633-0.95655-2.0443-2.1244zm-6.6208-16.125c-8.064-0.13349-8.3344-0.15485-8.3344-0.65828 0-0.40142 0.30227-0.6001 1.3229-0.86951 4.8793-1.2879 7.3704-2.0805 13.232-4.2098 2.3903-0.8683 2.5624-1.3902 1.2128-3.6778-0.57699-0.97792-0.58121-1.029-0.1137-1.3786 1.4645-1.095 1.3848-1.3863 1.3951 5.0973 5e-3 3.2755-0.0783 5.9283-0.18547 5.895-0.10722-0.0333-3.9454-0.12255-8.5293-0.19844zm-9.7447-4.414c-0.22366-0.39965 0.10924-0.8686 2.0327-2.8634 2.5588-2.6538 4.3378-4.8946 5.4646-6.8834 1.3018-2.2976 1.3451-2.3242 2.5499-1.5636 0.57209 0.36115 1.1576 0.58403 1.3012 0.49531 1.1117-0.68708 5.25-8.0695 6.3349-11.301 0.32977-0.98227 0.64304-1.7859 0.69616-1.7859 0.0531 0 0.0966 2.3741 0.0966 5.2758 0 5.2758 0 5.2758-2.3151 7.6068-1.2733 1.282-2.6954 2.5691-3.1603 2.8602s-2.2395 1.5865-3.9437 2.8789c-2.8029 2.1255-7.5231 5.2724-8.4308 5.6207-0.19725 0.0757-0.47898-0.0774-0.62608-0.3403z" fill="#858585"/>
   <path d="m72.197 217.59c-0.0111-0.0342-0.0587-0.24079-0.1056-0.45907s-0.66292-1.4102-1.3688-2.6486c-0.7059-1.2384-1.6406-2.8932-2.0772-3.6773-2.9433-5.2862-5.3409-8.1498-7.9375-9.4802-2.8229-1.4463-3.2174-1.4905-13.758-1.5438-5.9957-0.0303-10.342-0.16426-11.215-0.34565-2.7403-0.56943-9.3512-0.15014-10.691 0.67807-0.13697 0.0847-0.62195 0.24663-1.0777 0.35994-0.45578 0.1133-1.5431 0.46929-2.4162 0.79107s-3.7789 1.3452-6.4572 2.2743c-2.6783 0.92908-5.028 1.8206-5.2215 1.9812-0.29222 0.24253-0.35245-3.946-0.35573-24.74-0.0023-14.579 0.09505-25.032 0.23314-25.032 0.1304 0 0.62117 0.43745 1.0906 0.97211 2.1308 2.4269 8.2252 6.745 12.563 8.9011 5.6545 2.8108 9.8012 3.7361 17.992 4.0147 16.348 0.55601 20.993-2.2495 28.624-17.289 1.3553-2.6711 2.4643-5.0233 2.4643-5.2271 0-0.51099 30.842-0.53742 31.049-0.0266 0.0991 0.2443 0.13506 0.2419 0.15098-0.0101 0.0299-0.47376 9.0214-0.47376 9.5318 0 0.28506 0.26458 0.31897 0.26458 0.1696 0-0.24129-0.42739 0.16371-0.42739 0.62415 0 0.20232 0.18779 0.28428 0.2018 0.18964 0.0324-0.11731-0.20993 0.45254-0.30101 1.9236-0.30743 2.0902-9e-3 2.0902-9e-3 3.016 1.3852 1.6712 2.517 2.9123 5.2184 2.5136 5.4712-0.79022 0.50093-1.2786 0.21438-1.9723-1.1574-1.9088-3.774-3.1943-5.1582-4.3254-4.6575-1.0589 0.46871-1.0161 0.78056 0.35114 2.5609 1.896 2.4688 2.9324 4.4815 2.547 4.946-0.50408 0.60738-0.71239 0.48667-1.4928-0.86502-1.9887-3.4444-3.1833-4.6828-4.1593-4.3117-0.86477 0.32878-0.86347 0.48534 0.0145 1.7612 2.8991 4.213 3.0117 4.4368 2.3594 4.6871-0.42273 0.16222-0.77033-0.19628-2.0076-2.0705-1.5092-2.2862-2.0801-2.7842-2.8104-2.4514-0.90542 0.41253-0.80447 0.76342 0.82712 2.8751 1.4266 1.8464 1.9676 2.9863 1.5941 3.3589-0.10262 0.10237-0.44434-0.12965-0.75938-0.5156-0.31504-0.38594-1.2016-1.483-1.9701-2.438-1.3083-1.6256-1.4389-1.7173-2.0505-1.4386-0.8009 0.36491-0.83751 1.0229-0.0942 1.693 1.3937 1.2566 2.9006 3.5556 2.4451 3.7304-0.28683 0.11007-0.63585-0.0577-0.99534-0.47852-0.30449-0.35642-1.046-1.2261-1.6479-1.9327-0.94056-1.1042-1.1914-1.2602-1.7859-1.111-1.0678 0.26801-0.84038 0.91241 1.0359 2.9351 1.5885 1.7124 2.0599 2.5201 1.4709 2.5201-0.13261 0-1.0738-0.84434-2.0916-1.8763-1.8831-1.9094-2.4824-2.1522-3.0576-1.2389-0.24199 0.38427 2e-3 0.72214 1.541 2.1305 2.5279 2.3139 2.1165 2.8293-0.56035 0.70211-1.9118-1.5193-2.0279-1.5723-2.5018-1.1434-0.72983 0.66049-0.678 0.74215 1.4874 2.3436 1.8289 1.3526 2.3823 1.9929 1.7224 1.9929-0.14411 0-1.0446-0.53578-2.0011-1.1906-1.8777-1.2855-2.2625-1.398-2.7544-0.80534-0.434 0.52294-0.24008 0.75706 1.3882 1.676 1.7215 0.97153 2.366 1.6429 1.5774 1.6429-0.29104 0-0.66212-0.16021-0.82463-0.35601-0.45649-0.55005-2.3382-1.3176-2.7978-1.1413-0.61727 0.23686-0.49499 0.84495 0.23695 1.1784 1.2359 0.56309 2.9204 1.7311 2.6342 1.8265-0.15819 0.0527-0.9731-0.26471-1.8109-0.70543-1.5663-0.82393-2.0081-0.83703-1.9902-0.059 6e-3 0.26911 0.53336 0.70205 1.3229 1.0864 0.72195 0.35147 1.3126 0.73843 1.3126 0.8599 0 0.31654-0.0737 0.29489-1.5917-0.46756-0.96506-0.48472-1.4536-0.60547-1.6509-0.40808-0.38299 0.38299 0.1571 0.9964 1.4647 1.6635 0.56954 0.29055 0.9763 0.58751 0.90391 0.6599-0.0724 0.0724-0.72734-0.17025-1.4554-0.5392-1.0853-0.54995-1.3767-0.60716-1.6171-0.31748-0.33687 0.40591-0.12539 0.63259 1.2346 1.3233 0.47295 0.24021 0.8599 0.55776 0.8599 0.70568s-0.53222-0.043-1.1827-0.42417c-1.876-1.0994-2.5156-0.20562-0.66937 0.93539 1.4545 0.89895 1.3427 1.2473-0.12438 0.38752-1.1487-0.67317-1.7298-0.68703-1.7257-0.0412 1e-3 0.17332 0.48771 0.59251 1.0813 0.93155s1.0145 0.68123 0.9353 0.76041c-0.0792 0.0792-0.57258-0.10892-1.0964-0.418-1.165-0.68735-1.716-0.71481-1.716-0.0855 0 0.30516 0.4518 0.69886 1.2568 1.0951 0.71384 0.35141 1.1027 0.67319 0.90021 0.74484-0.19611 0.0694-0.6973-0.12578-1.1138-0.43368-0.41647-0.30791-1.0089-0.55983-1.3165-0.55983-0.89359 0-0.5226 0.83305 0.67239 1.5098 1.3173 0.74604 1.0087 0.79589-0.41873 0.0676-1.8002-0.9184-2.2576 0.0541-0.49216 1.0463 1.395 0.784 1.1649 1.0248-0.2765 0.28939-0.8722-0.44496-1.184-0.49704-1.4841-0.24794-0.49795 0.41327-0.15603 0.81795 1.2125 1.4351 0.58292 0.26285 1.0598 0.5789 1.0598 0.70232 0 0.30591 5e-3 0.3072-1.472-0.40958-0.92059-0.44686-1.4037-0.55444-1.6368-0.36448-0.55708 0.45395-0.38611 0.66786 1.1245 1.4069 1.6288 0.79687 2.0084 1.4222 0.46302 0.76268-2.0697-0.88334-2.2394-0.9244-2.5962-0.62832-0.57877 0.48033-0.18589 0.89371 1.4772 1.5543 2.571 1.0212 2.1804 1.4349-0.46055 0.48786-1.2509-0.44856-1.7195-0.51632-1.9534-0.28242-0.56199 0.56199-0.0158 1.11 1.536 1.541 2.2015 0.61145 2.4428 0.72701 1.7685 0.84688-0.30751 0.0547-1.2886-0.0691-2.1803-0.27513-1.3605-0.31431-1.6689-0.31705-1.9179-0.017-0.69911 0.84236-0.10494 1.1795 2.7391 1.554 2.183 0.28751 1.4949 0.75137-0.81562 0.54982-1.6993-0.14823-2.1333-0.10735-2.4108 0.22705-0.73898 0.89042-0.15745 1.2083 2.2104 1.2083 2.7296 0 3.218 0.42338 0.75396 0.65367-2.8127 0.26287-2.979 0.32469-2.979 1.1076 0 0.74483 0.35344 0.76248 3.7703 0.18831 1.836-0.30851 1.0511 0.37265-0.98147 0.85184-2.0402 0.481-2.5877 0.95274-1.9016 1.6388 0.3269 0.32691 0.58753 0.3029 1.9456-0.17926 1.6489-0.58544 2.4589-0.69883 2.4589-0.34423 0 0.11687-0.83344 0.48093-1.8521 0.809-1.4263 0.45937-1.8521 0.71106-1.8521 1.0948 0 0.7785 0.38334 0.83781 1.7178 0.26578 1.2581-0.53928 2.5718-0.72661 2.1054-0.30021-0.13824 0.12638-0.82277 0.44245-1.5212 0.70238-1.0277 0.38248-1.2535 0.5783-1.1844 1.027 0.0977 0.63387 0.11556 0.63296 2.0107-0.10237 1.6603-0.64424 1.5822-0.23174-0.10651 0.56204-1.9851 0.93309-1.4584 1.8816 0.56354 1.015 1.6085-0.68946 1.8088-0.50093 0.33283 0.31324-1.1697 0.64523-1.4897 1.3378-0.68942 1.4919 0.24789 0.0477 0.80181-0.17279 1.2309-0.49006s0.94069-0.52232 1.1368-0.45567c0.20573 0.0699-0.1191 0.36496-0.76792 0.6975-0.75017 0.38447-1.1245 0.75067-1.1245 1.1001 0 0.66357 0.4319 0.66177 1.5278-6e-3 1.3934-0.84958 1.5919-0.60669 0.2374 0.29051-1.992 1.3194-1.3451 2.114 0.7307 0.89748 0.66457-0.38946 1.2083-0.59219 1.2083-0.45049 0 0.14169-0.34858 0.40201-0.77462 0.57848-1.0837 0.44887-1.7827 1.2606-1.4081 1.6352 0.2127 0.2127 0.61989 0.10845 1.5019-0.3845 1.4887-0.83207 1.61-0.5565 0.15173 0.34477-1.8648 1.1525-1.1899 1.7823 0.85245 0.79557 1.4194-0.68578 1.6429-0.47033 0.24947 0.24052-1.2141 0.61939-1.5419 1.011-1.1633 1.3896 0.17424 0.17423 0.63738 0.0719 1.3726-0.3031 0.61027-0.31134 1.235-0.52424 1.3884-0.47312 0.15335 0.0511-0.27226 0.38529-0.94581 0.74261s-1.2246 0.80243-1.2246 0.98915c0 0.65629 0.77061 0.62334 1.9786-0.0846 0.67115-0.39332 1.2906-0.64484 1.3765-0.55895 0.0859 0.0859-0.22887 0.36826-0.69947 0.62746-1.5447 0.85078-2.1869 1.4428-1.8887 1.7409 0.32688 0.32688 2.2484-0.22931 2.7088-0.78408 0.34461-0.41522 0.75757-0.4648 0.75757-0.0909 0 0.14427-0.65485 0.63189-1.4552 1.0836-1.3857 0.78203-1.7738 1.3364-1.1888 1.6979 0.14652 0.0906 1.0614-0.25751 2.0331-0.77349 0.9717-0.51597 1.8213-0.88357 1.888-0.81687 0.23302 0.23302-0.45275 0.80167-1.9166 1.5892-1.1174 0.60119-1.4755 0.93818-1.4762 1.3891-1e-3 0.85164 0.68077 0.76119 2.4941-0.33073 2.6419-1.5908 2.8784-1.005 0.28311 0.70132-1.2861 0.84555-1.7198 1.2834-1.7198 1.736 0 0.96489 0.86937 0.74868 2.8853-0.71757 1.7584-1.279 2.4064-1.5735 2.4064-1.0939 0 0.12595-0.88203 0.95859-1.9601 1.8503-1.5357 1.2703-1.9298 1.7372-1.8201 2.1564 0.30867 1.1804 1.0331 0.90054 3.3237-1.284 2.344-2.2354 2.6086-1.4434 0.32613 0.97614-1.3748 1.4574-1.7266 1.9898-1.593 2.4109 0.31089 0.97952 1.1204 0.58108 2.9449-1.4494 0.98341-1.0944 1.9071-1.9502 2.0526-1.9017 0.61403 0.20468 0.36226 0.73796-1.1212 2.3749-0.86376 0.95312-1.6993 1.9522-1.8569 2.2201-0.24835 0.42245-0.32165 0.43445-0.55177 0.0903-0.17808-0.26633-0.2667-0.28808-0.26942-0.0661-2e-3 0.1819-0.29179 0.33073-0.64347 0.33073-0.35167 0-0.68949-0.14883-0.75072-0.33073-0.0883-0.26248-0.19638-0.26053-0.52356 9e-3 -0.4505 0.37173-12.143 0.34888-13.432-0.0263-0.53573-0.15591-0.56088-0.14471-0.13229 0.0589 0.42624 0.20251 0.30246 0.25504-0.63632 0.27001-1.1128 0.0178-1.1457-3e-3 -0.7276-0.46525 0.81314-0.89852 0.0741-2.1461-0.94742-1.5994-0.56984 0.30497-0.61509 1.2492-0.0699 1.4584 1.2231 0.46934-0.37665 0.60071-7.4083 0.60842-4.2929 5e-3 -7.8143-0.0195-7.8255-0.0537zm14.236-0.35434c-0.0879-0.0879-0.31612-0.0973-0.50712-0.0209-0.21106 0.0845-0.14837 0.14716 0.15986 0.15985 0.27891 0.0115 0.43518-0.051 0.34726-0.13896zm-6.8541-2.8294c0.12512-0.65946-0.40202-1.2156-1.0032-1.0584-0.58458 0.15287-0.85206 0.69976-0.62793 1.2838 0.2194 0.57173 1.5138 0.3928 1.6311-0.22546zm11.828-5.75c0.68049-0.75193 0.26701-1.9433-0.71414-2.0576-1.2343-0.14385-1.8884 1.1901-1.0129 2.0656 0.67064 0.67064 1.1147 0.66858 1.727-8e-3zm-8.5989-0.97204c2.1956-1.5132 1.5882-5.0466-0.94926-5.5227-2.2516-0.42241-3.8172 0.70797-3.8195 2.7578-3e-3 2.3991 2.877 4.0688 4.7688 2.7649zm-42.076-14.63c0-0.14552-0.11906-0.26458-0.26458-0.26458s-0.26458 0.11906-0.26458 0.26458 0.11906 0.26459 0.26458 0.26459 0.26458-0.11907 0.26458-0.26459zm10.054-2.7575c0.83698-0.42075 1.1856-0.75694 1.1737-1.1318-0.01196-0.37569 0.11607-0.49852 0.43316-0.4156 0.59451 0.15547 0.90372-0.37985 0.50023-0.86602-0.25761-0.3104-0.23632-0.38529 0.10951-0.38529 0.5994 0 0.56599-1.0558-0.03375-1.0667-0.44097-8e-3 -0.44097-0.0252 0-0.3599 0.83227-0.63178 0.53327-1.1159-0.59531-0.96384-0.31856 0.0429-0.33162-0.0136-0.06615-0.28616 0.44147-0.45332 0.42032-1.0275-0.03784-1.0275-0.20271 0-0.42844-0.15604-0.50163-0.34675-0.37058-0.96572-4.1258-1.4621-5.7604-0.76142-3.9178 1.6794-4.4079 5.0898-1.0511 7.3156 1.9737 1.3087 3.6455 1.3935 5.8297 0.29545zm-30.29-2.1246c1.3021-1.3806 0.97824-3.0264-0.7452-3.7871-2.3898-1.0548-4.7722 0.88106-3.7228 3.0251 0.93644 1.9133 3.0433 2.2726 4.468 0.76197zm50.803-0.40959c0.74485 0 0.77626-0.0744 0.33177-0.78614-0.27196-0.43549-0.22124-0.62257 0.33073-1.2199 0.65196-0.70552 0.65196-0.70552-0.01-0.50072-1.2139 0.37586-1.4174 0.28433-1.7212-0.77414-0.29616-1.0319-0.29616-1.0319-0.55262-0.13229-0.21458 0.75273-0.39476 0.91313-1.1034 0.98221-0.81709 0.0796-0.83296 0.10383-0.45083 0.68703 0.36111 0.55113 0.34726 0.66651-0.157 1.3076-0.55306 0.70311-0.55306 0.70311 0.14567 0.43745 1.0447-0.39718 1.1947-0.34099 1.5108 0.56576 0.28984 0.83142 0.28984 0.83142 0.65615 0.13229 0.2452-0.46798 0.5822-0.69912 1.0193-0.69912zm-36.707-0.9492c0.10162-0.7112-0.56186-1.2598-1.2568-1.0392-0.60554 0.19219-0.75939 1.3242-0.21113 1.5535 0.67573 0.28266 1.3899 0.0325 1.468-0.51428zm6.5168-5.8166c0.63417-0.63417 0.52497-1.6625-0.21222-1.9984-1.2837-0.58487-2.5238 0.88736-1.6038 1.9039 0.55948 0.61822 1.256 0.65444 1.816 0.0944zm-28.209-0.97713c0.1053-0.54678-0.6585-0.91522-1.0616-0.51209-0.40312 0.40312-0.03468 1.1669 0.5121 1.0616 0.25343-0.0488 0.50072-0.29609 0.54952-0.54953zm3.7538-0.98834c0-0.14552-0.11906-0.26459-0.26458-0.26459s-0.26458 0.11907-0.26458 0.26459 0.11906 0.26458 0.26458 0.26458 0.26458-0.11906 0.26458-0.26458zm66.672-6.1843c4.3227-2.8606 2.8476-10.108-1.9506-9.5839-3.5421 0.38714-5.8755 2.9068-5.6706 6.1235 0.25214 3.9598 4.175 5.741 7.6212 3.4604zm7.4114-7.3094c0-0.14552-0.11906-0.26459-0.26458-0.26459s-0.26459 0.11907-0.26459 0.26459 0.11907 0.26458 0.26459 0.26458 0.26458-0.11906 0.26458-0.26458zm-11.264-5.9715c0.55964-0.55965 0.0838-1.5037-0.69906-1.3868-0.88201 0.13173-1.2427 0.95822-0.62001 1.4206 0.64893 0.48188 0.80739 0.47781 1.3191-0.0339zm8.9936-1.862c0.55845-0.2143 0.5325-1.2421-0.0445-1.7626-0.89181-0.80449-1.9284 0.74881-1.0716 1.6057 0.3604 0.36039 0.52535 0.38358 1.1161 0.1569zm20.168 59.224c0.41557-0.40304 1.1128-1.1789 1.5493-1.7242 0.58864-0.73523 0.89135-0.92745 1.1715-0.74389 0.7312 0.47912-1.451 3.2009-2.5664 3.2009-0.91004 0-0.91004 0-0.15446-0.73279zm3.8301-0.32554c1.2543-1.5608 2.0106-1.3496 1.225 0.34206-0.26074 0.56143-0.51536 0.71258-1.2031 0.71421-0.87236 2e-3 -0.87236 2e-3 -0.0219-1.0563zm2.8786 0.79375c0-0.14552 0.42375-0.26458 0.94166-0.26458 0.56039 0 0.87545 0.10712 0.77813 0.26458-0.0899 0.14552-0.51368 0.26458-0.94165 0.26458-0.42798 0-0.77814-0.11906-0.77814-0.26458zm8.7247-64.972c-0.14192-0.37328-0.25803-0.72216-0.25803-0.77529 0-0.32595-1.6558-3.5886-2.122-4.1813-0.56224-0.71477-0.56224-0.71477 0.84743-0.71477 1.3514 0 1.4223 0.0356 1.7149 0.8599 0.16788 0.47294 0.63518 1.7388 1.0384 2.813 0.70966 1.8904 0.7173 1.9647 0.23809 2.3151-0.73464 0.53718-1.1702 0.44265-1.4588-0.31666zm3.8367-3.1446c-0.80005-2.5267-0.80005-2.5267 0.5591-2.5267s1.3592 0 1.8108 2.2744c0.51525 2.5944 0.56592 2.3891-0.64387 2.61-0.92604 0.16908-0.92604 0.16908-1.7261-2.3577zm5.8515 1.3759c-0.0725-0.47294-0.20333-1.3361-0.29068-1.9182-0.0873-0.58208-0.22001-1.2667-0.29482-1.5214-0.11884-0.40457 0.064-0.46302 1.4484-0.46302 1.5844 0 1.5844 0 1.6784 2.0505 0.12268 2.6765 0.10619 2.712-1.2591 2.712-1.0944 0-1.1567-0.0418-1.2822-0.8599zm7.037 0.67105c-0.74841-0.14293-0.78783-0.25898-0.90195-2.6554-0.0914-1.9182-0.0914-1.9182 0.90948-1.9182 1.0008 0 1.0008 0 1.0008 2.3812 0 1.3097-0.0893 2.365-0.19844 2.3452-0.10914-0.0198-0.47361-0.0886-0.80993-0.15282z" fill="#717171"/>
   <path d="m72.184 217.53c-0.0182-0.0728-0.0495-0.22159-0.0695-0.33073-0.0867-0.47202-2.9569-5.7132-4.4671-8.1572-3.0555-4.9448-4.3701-6.4165-6.857-7.6768-2.9802-1.5102-3.0384-1.5171-13.566-1.606-5.3787-0.0454-10.431-0.20301-11.227-0.35022-4.2576-0.78705-8.4975-0.24304-14.509 1.8617-1.7123 0.59946-4.8396 1.6848-6.9497 2.4118-2.1101 0.72702-4.1006 1.4912-4.4234 1.6983-0.58693 0.37641-0.58693 0.37641-0.59013-4.3664-0.0024-3.4975 0.08228-4.7829 0.32235-4.8954 0.25298-0.1186 0.2542-0.18622 0.0054-0.30341-0.40712-0.19179-0.47618-18.635-0.06977-18.635 0.14167 0 0.25758-0.12609 0.25758-0.2802s-0.12509-0.20289-0.27797-0.1084c-0.18832 0.11639-0.26313-0.68923-0.23197-2.4979 0.03503-2.033 0.13061-2.6697 0.40078-2.6697 1.4534 0 5.8742 0.66387 6.1946 0.93025 0.54589 0.45383 3.7167 1.2062 4.3656 1.0358 0.32395-0.085 0.88257 0.12245 1.4405 0.53502 0.50122 0.37066 1.1906 0.67392 1.5319 0.67392s1.0788 0.23377 1.6389 0.51948c2.3296 1.1885 5.3163 1.4228 8.1663 0.64061 0.55968-0.15361-0.13547-1.1601-0.80124-1.1601-0.99948 0-0.13742-0.45191 1.1867-0.6221 1.1307-0.14532 1.2568-0.10895 1.2568 0.36258 0 0.39705 0.1764 0.52242 0.7276 0.51717 0.93183-9e-3 3.0831-0.98813 2.3151-1.0538-0.34559-0.0296-0.21054-0.13668 0.3893-0.30874 0.64294-0.18443 0.94719-0.17727 1.0142 0.0239 0.13204 0.39613 1.0408 0.3626 1.1764-0.0434 0.08565-0.25639 0.50182-0.22665 1.8514 0.13229 1.2115 0.32222 2.6128 0.4516 4.6079 0.42547 2.0569-0.0269 2.5679-0.0911 1.8087-0.22703-0.98198-0.17583-0.94381-0.19086 0.52917-0.20845 0.9703-0.0116 1.3893 0.0587 1.0777 0.18078-0.50337 0.19719-0.50337 0.20261 0 0.42824 0.71648 0.32116 9.7272 0.41234 9.92 0.10039 0.08548-0.13832 0.60924-0.28723 1.1639-0.33091 0.55465-0.0437 1.1408-0.25028 1.3026-0.45911 0.16179-0.20882 0.62701-0.5927 1.0338-0.85306 0.40681-0.26035 0.87958-0.7945 1.0506-1.187 0.17102-0.39249 0.70309-1.295 1.1824-2.0056 0.47928-0.71059 0.94946-1.6036 1.0448-1.9844 0.09538-0.38081 0.57012-1.4538 1.055-2.3845 0.67354-1.2928 0.81164-1.7764 0.58523-2.0492-0.22293-0.26862-0.18876-0.52124 0.13794-1.0198 0.44182-0.67431 0.86526-0.93519 0.53896-0.33205-0.0984 0.1819 0.20684-0.0654 0.67834-0.54959 0.59595-0.61197 0.77301-0.96457 0.58086-1.1567-0.36661-0.36661-0.10461-1.0088 0.3417-0.83754 0.35317 0.13553 0.84602-0.86752 0.56456-1.149-0.081-0.081 0.26534-0.62921 0.76959-1.2183s0.91681-1.2878 0.91681-1.5526c0-0.26485 0.17049-0.48155 0.37886-0.48155s0.62722-0.34879 0.93078-0.77509c0.30355-0.42631 0.99627-1.0485 1.5394-1.3827 1.9831-1.2203 4.1032-3.3686 4.8552-4.9198 0.5451-1.1245 0.5451-1.1245 5.628-1.1245 3.6999 0 5.1798 0.09 5.4392 0.33073 0.2853 0.26482 0.31874 0.26423 0.16776-3e-3 -0.26046-0.46095 10.992-0.43339 11.285 0.0276 0.14273 0.22431 0.19583 0.21772 0.1988-0.0247 3e-3 -0.24991 0.92538-0.32563 3.7744-0.30984 2.0737 0.0115 3.6229 0.0805 3.4426 0.15332-0.20425 0.0825 0.12795 0.56898 0.88203 1.2915 0.66533 0.63748 1.1332 1.2829 1.0397 1.4342-0.2885 0.46681-0.62599 0.31302-1.5735-0.71707-0.64136-0.69723-0.99652-0.90944-1.1947-0.71386-0.19883 0.19622-9e-3 0.54327 0.64453 1.1764 0.95102 0.92177 1.194 1.588 0.57918 1.588-0.19105 0-0.68958-0.35718-1.1078-0.79375-1.2799-1.3359-1.69-0.8986-0.49222 0.52483 0.52713 0.62646 0.62365 0.90479 0.39355 1.1349-0.2301 0.2301-0.50344 0.064-1.1146-0.67742-0.44533-0.54026-0.98889-0.98229-1.2079-0.98229-0.26696 0-0.0854 0.36553 0.55087 1.1088 1.2169 1.4217 0.84931 2.0617-0.45693 0.79568-1.3537-1.3121-1.7827-0.99694-0.58323 0.42851 1.2692 1.5083 0.60827 1.9317-0.6962 0.44599-1.0956-1.2478-1.514-0.89135-0.48253 0.41103 1.1381 1.4369 0.72851 1.8861-0.56664 0.62147-1.2181-1.1894-1.6351-1.044-0.6626 0.23101 1.248 1.6362 0.68495 2.1312-0.66948 0.58857-0.44677-0.50885-0.92973-0.85262-1.0732-0.76392-0.14372 0.0888 0.10596 0.53978 0.55582 1.0039 1.4624 1.5088 0.82253 2.1012-0.68805 0.63712-1.1452-1.1099-1.4433-0.7629-0.3825 0.44526 1.3588 1.5475 0.79409 2.1436-0.62625 0.66114-0.72034-0.75188-1.4552-1.0453-1.4552-0.58107 0 0.11697 0.41672 0.61658 0.92605 1.1102 1.4476 1.4031 1.0863 1.8757-0.50565 0.66146-0.47697-0.3638-1.0048-0.66146-1.173-0.66146-0.58881 0-0.29759 0.5296 0.61701 1.122 1.614 1.0455 1.0833 1.7246-0.55598 0.71144-0.48747-0.30127-1.0212-0.46442-1.186-0.36255-0.18187 0.1124 0.19301 0.49188 0.95353 0.96524 1.579 0.98279 1.2892 1.6-0.35689 0.76026-1.2799-0.65296-1.3649-0.66385-1.3649-0.17475 0 0.20672 0.34896 0.4525 0.77547 0.54617 0.79188 0.17393 1.5387 0.82077 1.2643 1.0951-0.0838 0.0837-0.578 0.0118-1.0983-0.15997-2.0025-0.66087-1.7116-0.0559 0.3153 0.65591 0.85603 0.30061 0.26768 0.69883-0.79375 0.53726-0.81858-0.12461-1.0165-0.096-0.7276 0.10498 0.21828 0.15189 0.61515 0.27798 0.88194 0.28021 0.27306 2e-3 0.43389 0.1486 0.36798 0.33478-0.0644 0.1819-0.43151 0.30831-0.8158 0.28092-0.38429-0.0274-0.69871 0.0619-0.69871 0.19843 0 0.13654 0.23813 0.24825 0.52917 0.24825 0.29398 0 0.52917 0.17639 0.52917 0.39688 0 0.21828-0.11116 0.39687-0.24701 0.39687-0.13586 0-0.28469 0.32272-0.33073 0.71714-0.0587 0.50297-0.28127 0.77166-0.74518 0.89967-0.41582 0.11475-0.48951 0.19232-0.19844 0.2089 0.25467 0.0145 0.46302 0.206 0.46302 0.42554 0 0.54718-1.5736 2.6618-1.9099 2.5666-0.14942-0.0423-0.21499 0.0767-0.14572 0.26458 0.0693 0.18785-0.0961 0.69874-0.36749 1.1353-0.2714 0.43656-0.56549 1.0021-0.65352 1.2568-0.20039 0.57965-0.52894 0.5922-0.84235 0.0322-0.15254-0.27258-0.30474-0.32789-0.41433-0.15057-0.0953 0.15415-0.0522 0.35506 0.0957 0.44646 0.3447 0.21304 0.35269 1.4579 9e-3 1.4579-0.14275 0-0.33653 0.30675-0.43063 0.68167-0.14034 0.55917-0.28388 0.65336-0.79879 0.52413-0.69318-0.17398-0.75027-0.0771-0.37163 0.63037 0.1931 0.36083 0.12805 0.59433-0.26459 0.94966-0.28635 0.25915-0.52065 0.63835-0.52065 0.84267 0 0.21625-0.12934 0.29154-0.30954 0.18017-0.20692-0.12788-0.25461-0.0481-0.14385 0.24049 0.0911 0.2375 0.0518 0.50218-0.0873 0.58819-0.13916 0.086-0.25303 0.38748-0.25303 0.66993 0 0.62455-0.20762 0.64712-0.82375 0.0895-0.2577-0.23322-0.62426-0.36789-0.81459-0.29928-0.21374 0.0771-0.0679 0.25541 0.38157 0.4665 0.40018 0.18796 0.72761 0.50123 0.72761 0.69615 0 0.45001-0.11634 0.44466-1.0715-0.0493-0.46322-0.23953-0.78062-0.29102-0.78062-0.12662 0 0.15238 0.29766 0.41268 0.66146 0.57843 0.3638 0.16577 0.66146 0.46087 0.66146 0.65579 0 0.44425-0.22254 0.43531-1.0583-0.0425-0.79999-0.45732-1.0583-0.48631-1.0583-0.11879 0 0.15295 0.42152 0.45421 0.93671 0.66947s0.86535 0.50684 0.77814 0.64795c-0.2329 0.37683-1.0104 0.31267-1.5981-0.13188-0.6613-0.50018-0.91047-0.5022-0.91047-7e-3 0 0.24818 0.44929 0.51806 1.1941 0.71726 0.65674 0.17565 1.1499 0.44308 1.096 0.59429-0.10844 0.30399-0.31745 0.30929-1.9594 0.0496-0.86265-0.13642-1.1245-0.0933-1.1245 0.18497 0 0.23133 0.5033 0.44817 1.3891 0.59844 1.7822 0.30234 1.6804 0.74209-0.19539 0.84416-1.8863 0.10264-1.9017 0.58211-0.0187 0.58211 2.3698 0 2.4025 0.73583 0.0435 0.9793-0.81569 0.0842-1.4831 0.24844-1.4831 0.36502 0 0.43491 0.56634 0.53653 1.42 0.2548 0.93666-0.30912 1.8388-0.1307 1.6842 0.33309-0.0512 0.15374-0.61298 0.40696-1.2483 0.56272-0.63532 0.15576-1.2097 0.45008-1.2764 0.65404-0.0914 0.27961 0.034 0.32505 0.5095 0.18465 1.6882-0.49837 2.7645-0.52958 2.3843-0.0691-0.19972 0.24184-0.55691 0.44348-0.79375 0.44811-0.50458 0.01-1.5138 0.71639-1.3118 0.91837 0.0762 0.0762 0.57874-0.0455 1.1168-0.27027 1.0877-0.45449 1.697-0.3057 1.2 0.29308-0.17041 0.20534-0.45927 0.37333-0.64191 0.37333-0.18265 0-0.49549 0.20089-0.69521 0.44642-0.32323 0.39737-0.30499 0.42269 0.16604 0.23055 1.5231-0.6213 2.4871-0.31778 1.0583 0.33323-0.3638 0.16575-0.66146 0.42605-0.66146 0.57842 0 0.16456 0.31622 0.11354 0.77874-0.12564 0.49031-0.25355 0.83908-0.30507 0.94166-0.13909 0.0896 0.14499 0.10204 0.26361 0.0277 0.26361-0.0744 0 0.16317 0.32203 0.52793 0.71562 0.66321 0.71561 0.66321 0.71561 0.0535 1.2072-0.60969 0.49159-0.60969 0.49159-2e-3 0.32086 0.69456-0.19504 1.3764 0.25452 1.3764 0.90756 0 0.24234 0.34669 0.85284 0.77043 1.3567 0.5802 0.68987 0.73536 1.0957 0.62838 1.6437-0.11095 0.56835-0.0417 0.7276 0.31622 0.7276 0.28063 0 0.40402 0.14134 0.31833 0.36463-0.077 0.20055-6e-3 0.49821 0.1569 0.66146 0.38939 0.38939 0.80466 0.38301 0.5626-9e-3 -0.11697-0.18926-0.0726-0.23365 0.11668-0.11668 0.168 0.10383 0.30546 0.36035 0.30546 0.57005 0 0.20969 0.12201 0.38126 0.27113 0.38126 0.14913 0 0.38018 0.26789 0.51345 0.59531s0.47757 0.94026 0.76512 1.3619c0.41702 0.61144 0.4617 0.86441 0.22079 1.2502-0.23336 0.37366-0.21948 0.56031 0.061 0.82095 0.29964 0.27842 0.33459 0.25648 0.20011-0.12569-0.10723-0.30475-0.0301-0.46302 0.22564-0.46302 0.21372 0 0.40346 0.11906 0.42165 0.26458 0.0682 0.54539 0.12306 0.69097 0.72445 1.9216 0.61581 1.2601 0.61581 1.2601-5e-3 1.7986-0.62052 0.53855-0.62052 0.53855 0.23937 0.37253 0.65507-0.12647 0.8599-0.0735 0.8599 0.22243 0 0.23505-0.36861 0.4576-0.9334 0.56356-0.51336 0.0963-0.86895 0.27938-0.79018 0.40682 0.0814 0.13168 0.51217 0.12591 0.99779-0.0134 1.6591-0.47581 1.8089 0.0667 0.19662 0.71182-1.725 0.69023-1.497 1.1198 0.26459 0.4983 1.3644-0.48139 1.3229-0.48013 1.3229-0.0402 0 0.19618-0.47625 0.57145-1.0583 0.83393-1.0625 0.47912-1.389 0.92604-0.67658 0.92604 0.20996 0 0.80135-0.24757 1.3142-0.55016 1.7617-1.0394 1.8863-0.14518 0.13388 0.96108-1.0106 0.63796-1.3449 1.1766-0.73034 1.1766 0.16816 0 0.696-0.29765 1.173-0.66146 0.47697-0.3638 0.99422-0.66146 1.1495-0.66146 0.598 0 0.24089 0.7537-0.642 1.355-0.50833 0.34618-0.92505 0.77825-0.92604 0.96015-3e-3 0.48977 0.21399 0.41383 1.3211-0.46302 1.8238-1.4445 2.2599-0.70716 0.52897 0.89438-1.0585 0.97938-1.0585 0.97938-6.1516 0.88933-2.8013-0.0495-5.3908-0.18381-5.7546-0.29839-0.50383-0.15868-0.56688-0.14077-0.26458 0.0752 0.31025 0.2216 0.1769 0.28437-0.61093 0.28753-0.60536 2e-3 -0.9425-0.1016-0.84428-0.26053 0.0899-0.14552 0.33509-0.26458 0.54478-0.26458 0.2149 0 0.38126-0.25068 0.38126-0.57448 0-0.31597 0.20266-0.79842 0.45036-1.0721 0.43307-0.47854 0.4237-0.48751-0.24409-0.23361-0.52238 0.19861-0.76947 0.17363-0.99723-0.10081-0.33004-0.39767-1.1745 0.23475-1.7226 1.29-0.51907 0.99943-2.0273 1.2356-7.6659 1.2001-3.5467-0.0223-5.4248-0.13381-5.6802-0.33735-0.29433-0.2346-0.33611-0.22851-0.18282 0.0266 0.13327 0.22184 0.0193 0.33073-0.34609 0.33073-0.29963 0-0.55967-0.0595-0.57786-0.13229zm7.9706-2.5135c0.3314-0.61923-3e-3 -1.429-0.75704-1.8324-1.2578-0.67314-2.4349 0.79049-1.4823 1.8431 0.6205 0.68565 1.8698 0.6797 2.2393-0.0107zm-4.4979-3.4396c0-0.14552-0.11906-0.26459-0.26458-0.26459s-0.26459 0.11907-0.26459 0.26459 0.11907 0.26458 0.26459 0.26458 0.26458-0.11906 0.26458-0.26458zm7.259-1.5875c1.6916 0 3.0331-2.1485 3.1073-4.9764 0.0755-2.877-1.9765-5.3383-4.9934-5.9892-0.57146-0.12331-0.79909-0.30138-0.70354-0.55038 0.23604-0.61511-1.0809-0.74681-2.5588-0.25591-0.74498 0.24744-1.4258 0.64586-1.513 0.88538-0.0872 0.23952-0.43585 0.77205-0.77488 1.1834-0.68983 0.83696-0.89752 3.0851-0.2857 3.0926 0.22017 3e-3 0.19805 0.0892-0.0661 0.25864-0.98236 0.63016 1.6125 4.5506 3.6345 5.4912 2.1745 1.0116 2.485 1.1144 2.9356 0.97204 0.1938-0.0612 0.74197-0.11133 1.2181-0.11133zm8.4639-1.3011c0.61012-0.67417 0.43811-1.652-0.36037-2.0486-1.2927-0.64212-2.4403 0.95677-1.4623 2.0374 0.59379 0.65613 1.2354 0.66006 1.8227 0.0112zm-1.1709-5.0489c0-0.14552-0.18562-0.26459-0.41249-0.26459s-0.3389 0.11907-0.24896 0.26459c0.0899 0.14552 0.27555 0.26458 0.41249 0.26458 0.13693 0 0.24896-0.11906 0.24896-0.26458zm-73.571-9.6779c-0.16908-0.20372-0.41876-0.30158-0.55486-0.21747-0.14634 0.0904-0.12184 0.30429 0.05996 0.52334 0.16908 0.20372 0.41876 0.30159 0.55486 0.21747 0.14634-0.0904 0.12184-0.30429-0.05996-0.52334zm28.063 0.41752c0-0.14552-0.11906-0.26458-0.26458-0.26458s-0.26458 0.11906-0.26458 0.26458 0.11906 0.26458 0.26458 0.26458 0.26458-0.11906 0.26458-0.26458zm45.244 0c0-0.14552-0.11203-0.26458-0.24897-0.26458-0.13693 0-0.32255 0.11906-0.41249 0.26458-0.0899 0.14552 0.0221 0.26458 0.24897 0.26458s0.41249-0.11906 0.41249-0.26458zm-48.931-0.27389c1.0705-0.57289 0.35489-2.3719-0.94344-2.3719-1.3576 0-1.773 1.0292-0.80578 1.9964 0.71938 0.71938 0.99584 0.77873 1.7492 0.37554zm48.004-0.25528c0.0899-0.14552 0.0374-0.26458-0.11668-0.26458-0.15411 0-0.2802 0.11906-0.2802 0.26458s0.0525 0.26459 0.11668 0.26459c0.0642 0 0.19026-0.11907 0.2802-0.26459zm-76.156-0.41739c0.19172-0.49962-0.53345-1.3079-0.94514-1.0535-0.3195 0.19747-0.39139 1.0167-0.11358 1.2945 0.31702 0.31702 0.89508 0.18544 1.0587-0.241zm37.661-2.3155c0.51084-0.21792 1.2665-0.70921 1.6793-1.0917 0.63673-0.5901 0.81676-0.6437 1.1879-0.35366 0.38834 0.30352 0.39775 0.29123 0.08388-0.10958-0.52588-0.67154-0.10953-1.1457 0.51207-0.58313 0.27659 0.25032 0.5029 0.33213 0.5029 0.1818 0-0.15032-0.26789-0.471-0.59531-0.71261-0.40845-0.30141-0.4915-0.48456-0.26458-0.58349 0.1819-0.0793 0.33073-0.47981 0.33073-0.89001 0-0.59081 0.16497-0.80333 0.79375-1.0225 1.0285-0.35852 1.0215-0.6623-0.01164-0.51067-1.0232 0.15018-1.2938-0.24188-0.40114-0.58126 0.37256-0.14164 0.67738-0.39324 0.67738-0.5591 0-0.19168-0.23762-0.14587-0.65215 0.12575-0.86832 0.56894-0.91869 0.55405-1.2396-0.36645-0.15219-0.43656-0.44365-0.79375-0.6477-0.79375-0.20405 0-0.371-0.11051-0.371-0.24557 0-0.40269-2.8426-1.3419-4.0613-1.3419-2.4435 0-7.6678 4.1555-6.2927 5.0053 0.1536 0.0949 0.45832 0.60113 0.67716 1.1249 1.1922 2.8534 5.2597 4.516 8.0921 3.3077zm19.651-1.3536c0.24293-2.3538 0.64215-2.5005 3.2326-1.1878 1.7525 0.88807 1.7114 0.80664-0.33073-0.65546-1.79-1.2816-1.759-1.4696 0.50452-3.0592 2.1988-1.5442 2.1572-1.6172-0.30608-0.53606-2.3583 1.0351-2.5844 1.019-2.7868-0.19843-0.34644-2.0846-0.44703-2.0327-1.0273 0.52916-0.20123 0.88845-0.81394 0.94197-2.2714 0.19844-1.2392-0.63219-1.5003-0.66483-1.0583-0.13229 0.18116 0.21828 0.48475 0.39687 0.67465 0.39687 0.46024 0 1.4444 1.2734 1.2917 1.6713-0.0664 0.17302-0.71459 0.71984-1.4404 1.2151-1.2336 0.84179-1.8814 1.667-0.85669 1.0912 2.9569-1.6613 3.7703-1.3388 3.7703 1.495 0 1.402 0.43527 0.80525 0.60383-0.82788zm-49.552-0.67602c0.32311 0 0.54472-0.25894 0.65627-0.76684 0.10507-0.47839 0.38667-0.82832 0.74863-0.93027 0.53163-0.14974 0.54144-0.18632 0.11718-0.43693-0.25466-0.15042-0.46302-0.48197-0.46302-0.73677 0-0.74759-0.62367-1.8803-1.1245-2.0422-0.25466-0.0823-0.46302-0.30036-0.46302-0.48448 0-0.34582-2.1405-0.18177-3.3073 0.25347-0.77641 0.28961-1.4654 0.94474-1.2908 1.2273 0.08358 0.13524-0.04694 0.46569-0.29006 0.73433-0.57237 0.63246 0.71855 3.1815 1.6119 3.1827 0.12845 1.7e-4 0.57655 0.29531 0.99578 0.65584 0.76223 0.65553 0.76223 0.65553 1.5417-2.6e-4 0.42869-0.36078 0.99896-0.65591 1.2673-0.65591zm14.481-2.722c0.29017-0.64062 0.27191-0.71763-0.17013-0.71763-0.27235 0-0.56476-0.1813-0.64978-0.40288-0.13125-0.34203-0.23452-0.32295-0.68376 0.12629-0.31572 0.31573-0.70398 0.46209-0.96258 0.36286-0.34956-0.13414-0.3973-0.0525-0.24674 0.42183 0.12733 0.40119 0.0319 0.76085-0.3002 1.1314-0.48263 0.53854-0.47938 0.54164 0.37325 0.35684 0.66254-0.14359 0.89746-0.0891 1.0227 0.23725 0.19561 0.50975 1.0716-0.31142 1.6173-1.516zm20.048 1.6636c-0.08994-0.14552-0.27556-0.26458-0.41249-0.26458-0.13693 0-0.24897 0.11906-0.24897 0.26458s0.18562 0.26458 0.41249 0.26458c0.22687 0 0.3389-0.11906 0.24897-0.26458zm0.52917-1.0583c-0.08994-0.14552-0.34211-0.26459-0.5604-0.26459-0.21828 0-0.32329 0.11907-0.23335 0.26459 0.08994 0.14552 0.34211 0.26458 0.5604 0.26458 0.21828 0 0.32329-0.11906 0.23336-0.26458zm-14.667-5.8301c0.77651-0.41558 0.68885-1.7734-0.13885-2.1506-0.52101-0.23739-0.78454-0.20869-1.3229 0.14407-1.52 0.99594-0.15387 2.8712 1.4618 2.0065zm-28.196-1.1813c0-0.78797-1.0328-0.70924-1.1457 0.0873-0.07266 0.51298 0.01619 0.60183 0.52917 0.52917 0.41099-0.0582 0.61649-0.26371 0.61649-0.61649zm4.0349-0.99219c-0.06063-0.1819-0.26899-0.33073-0.46302-0.33073s-0.40239 0.14883-0.46302 0.33073c-0.06558 0.19674 0.122 0.33073 0.46302 0.33073 0.34102 0 0.5286-0.13399 0.46302-0.33073zm72.694 0.0661c-0.0899-0.14552-0.27556-0.26459-0.41249-0.26459-0.13694 0-0.24897 0.11907-0.24897 0.26459s0.18562 0.26458 0.41249 0.26458 0.3389-0.11906 0.24897-0.26458zm-44.847-0.52912c0-0.14552-0.11906-0.26458-0.26458-0.26458s-0.26458 0.11906-0.26458 0.26458 0.11906 0.26458 0.26458 0.26458 0.26458-0.11906 0.26458-0.26458zm38.565-5.4521c2.4747-1.445 3.3932-4.8875 2.0387-7.6413-2.2362-4.5463-9.6495-1.6594-9.646 3.7563 3e-3 3.9794 3.973 6.0071 7.6073 3.885zm6.8115-3.5438c0.0899-0.14552 0.0374-0.26459-0.11667-0.26459-0.15411 0-0.2802 0.11907-0.2802 0.26459s0.0525 0.26458 0.11667 0.26458c0.0642 0 0.19027-0.11906 0.2802-0.26458zm1.6375-3.7017c0.6456-1.3016-0.96346-2.4268-2.0562-1.4379-0.62633 0.56682-0.6443 1.1102-0.0581 1.7579 0.61332 0.67772 1.7011 0.51311 2.1143-0.31995zm-16.057-4.3681c0-0.21828-0.11906-0.39687-0.26458-0.39687s-0.26459 0.17859-0.26459 0.39687c0 0.21829 0.11907 0.39688 0.26459 0.39688s0.26458-0.17859 0.26458-0.39688zm3.8095-1.491c1.2195-0.55564 1.0649-1.9099-0.25588-2.2414-1.8854-0.4732-2.3228 1.9423-0.45717 2.525 0.0295 9e-3 0.3504-0.11842 0.71305-0.28365zm8.7216-1.9485c0.0838-0.21828 0.33462-0.39687 0.55747-0.39687s0.40518-0.20069 0.40518-0.44597 0.26789-0.73206 0.59531-1.0817c0.59532-0.63575 0.59532-0.63575-0.36242-0.45709-0.89124 0.16626-0.97085 0.12656-1.1466-0.57192-0.18881-0.75059-0.18881-0.75059-0.55084 0.10931-0.19912 0.47294-0.53523 0.8599-0.74692 0.8599-0.25495 0-0.33803 0.1791-0.24612 0.53057 0.0763 0.29182-9e-3 0.70854-0.18946 0.92604-0.27703 0.3338-0.22002 0.39547 0.36565 0.39547 0.38162 0 0.69385 0.11906 0.69385 0.26458 0 0.40875 0.45413 0.3126 0.62485-0.13229zm-2.0801 59.399c0.73525-0.31595 1.4552-0.31595 1.4552 0 0 0.14552-0.44648 0.25621-0.99219 0.24599-0.79592-0.0149-0.88751-0.0636-0.46302-0.24599zm15.478-0.0156c0-0.15411 0.10175-0.21731 0.22612-0.14045 0.12437 0.0769 0.50231-0.15423 0.83987-0.51355 0.59804-0.63658 1.3153-0.8737 1.3153-0.43484 0 0.12015-0.27557 0.47734-0.61237 0.79375-0.63494 0.59649-1.7689 0.78566-1.7689 0.29508zm2.696-0.14798c0.2355-0.2355 0.56061-0.34634 0.72247-0.24631 0.4307 0.2662 0.0794 0.67449-0.58041 0.67449-0.52541 0-0.53658-0.0337-0.14206-0.42818zm-68.891-43.144c0.191-0.0764 0.4192-0.067 0.50712 0.0209 0.08792 0.0879-0.06835 0.15046-0.34727 0.13897-0.30822-0.0127-0.37092-0.0754-0.15985-0.15985zm21.349-0.61301c0.08994-0.14552 0.34211-0.26459 0.5604-0.26459 0.21828 0 0.32329 0.11907 0.23335 0.26459-0.08994 0.14552-0.34211 0.26458-0.5604 0.26458s-0.32329-0.11906-0.23336-0.26458zm-32.676-0.26459c-0.21828-0.14106-0.27781-0.25648-0.13229-0.25648s0.44318 0.11542 0.66146 0.25648c0.21828 0.14107 0.27781 0.25648 0.13229 0.25648s-0.44318-0.11541-0.66146-0.25648zm-3.9688-1.3229c-0.21828-0.14107-0.27781-0.25648-0.13229-0.25648s0.44318 0.11541 0.66146 0.25648c0.21828 0.14106 0.27781 0.25648 0.13229 0.25648s-0.44318-0.11542-0.66146-0.25648zm41.143 0c0.08994-0.14552 0.28258-0.26459 0.4281-0.26459s0.191 0.11907 0.10106 0.26459c-0.08994 0.14552-0.28258 0.26458-0.4281 0.26458s-0.191-0.11906-0.10106-0.26458zm-42.861-0.79072c-0.09269-0.14998 0.01351-0.19434 0.24897-0.10399 0.45837 0.1759 0.54223 0.36554 0.16165 0.36554-0.13693 0-0.32171-0.1177-0.41062-0.26155zm-4.8175-1.354c-0.86763-0.25092-1.4443-0.77746-0.82239-0.75092 0.19049 8e-3 0.88212 0.23961 1.537 0.51439 1.2312 0.51664 0.77557 0.66747-0.71458 0.23653zm50.721-0.2053c0-0.14552 0.11906-0.33817 0.26458-0.42811 0.14552-0.0899 0.26458-0.0445 0.26458 0.10106 0 0.14552-0.11906 0.33817-0.26458 0.42811-0.14552 0.0899-0.26458 0.0445-0.26458-0.10106zm-53.777-0.99921c-0.92252-0.38264-1.3352-0.88411-0.7276-0.88411 0.14552 0 0.26458 0.10961 0.26458 0.24356 0 0.13396 0.35582 0.32172 0.79072 0.41724 0.43489 0.0955 0.85864 0.28357 0.94166 0.41789 0.20759 0.33588-0.10655 0.28773-1.2694-0.19458zm57.481-4.4716c0-0.22687 0.12101-0.3377 0.2689-0.2463 0.1479 0.0914 0.2004 0.27703 0.11668 0.41249-0.22681 0.36699-0.38558 0.29856-0.38558-0.16619zm5.9531-10.171c0.0899-0.14552 0.21603-0.26458 0.2802-0.26458 0.0642 0 0.11667 0.11906 0.11667 0.26458s-0.12609 0.26458-0.28019 0.26458c-0.15411 0-0.20662-0.11906-0.11668-0.26458zm2.7781-3.4072c0-0.1277 0.1786-0.3804 0.39688-0.56156 0.4308-0.35753 0.48465-0.27201 0.23627 0.37524-0.17 0.44303-0.63315 0.57933-0.63315 0.18632zm35.688-2.6782c-0.97417-0.98395-1.0046-1.0583-0.43228-1.0583 0.78156 0 2.4741 1.3812 2.2121 1.8051-0.31849 0.51531-0.6807 0.36333-1.7798-0.7468zm2.2305-0.39507c-0.29839-0.20899-0.63678-0.2949-0.75199-0.1909s-0.12382 0.0403-0.0191-0.14163c0.21705-0.37717 1.6412-0.45075 1.8604-0.0961 0.30623 0.49549-0.52614 0.82307-1.0892 0.42866z" fill="#616161"/>
   <path d="m74.718 218.52c-0.25581-0.14897-0.613-0.18579-0.79375-0.0818-0.18074 0.10396-0.24265 0.0939-0.13757-0.0224 0.10508-0.11629-0.0985-0.5556-0.45249-0.97625-0.35396-0.42065-0.72392-1.2078-0.82215-1.7492-0.21494-1.1848-0.96452-2.7373-1.5604-3.2318-0.81031-0.67248-2.1683-3.9529-3.3414-8.0714-2.0706-7.2698-4.4138-8.4179-13.197-6.4665-2.6923 0.59817-4.9806 0.91681-7.6729 1.0684-2.11 0.11882-4.3351 0.29247-4.9444 0.3859-1.8676 0.28633-4.3803-0.51706-7.3587-2.3528-3.7196-2.2926-4.9553-2.3026-10.371-0.0833-2.0661 0.84663-4.4474 1.6996-5.2917 1.8954-0.8443 0.19586-2.3685 0.6591-3.3872 1.0294-1.9634 0.71379-5.6885 0.98019-5.6885 0.4068 0-0.15411-0.11906-0.20661-0.26458-0.11667-0.16409 0.10141-0.26459-0.38678-0.26459-1.2853 0-0.91795 0.12118-1.4932 0.33073-1.57 0.26459-0.097 0.26459-0.19138 0-0.47184-0.44974-0.47672-0.46117-6.3585-0.0132-6.8064 0.24695-0.24695 0.24695-0.3175 0-0.3175-0.43355 0-0.43355-3.7469 0-4.1804 0.24695-0.24694 0.24695-0.3175 0-0.3175-0.40264 0-0.45361-6.4992-0.0529-6.7469 0.14552-0.0899 0.26459-0.28258 0.26459-0.4281s-0.11907-0.191-0.26459-0.10106c-0.40675 0.25139-0.34281-4.3252 0.0661-4.7341 0.24172-0.24169 0.8648-0.27958 2.3151-0.14078 1.863 0.17829 2.6116 0.36562 6.4078 1.6034 1.7097 0.55749 2.163 0.61131 1.9266 0.22876-0.3213-0.51987 0.63498-0.2527 1.4002 0.3912 0.42865 0.36068 1.4512 0.83079 2.2724 1.0447s1.5897 0.4486 1.7077 0.52157c1.2224 0.75548 6.33 0.9849 7.3868 0.33178 0.50344-0.31115-0.0948-1.23-0.80405-1.235-0.47537-3e-3 -0.51108-0.0525-0.18913-0.26053 0.80516-0.52034 2.6458-0.32387 2.6458 0.28241 0 0.60229 0.16334 0.58797 2.3708-0.20783 1.0128-0.36511 1.1066-0.45751 0.66145-0.6514-0.32455-0.14136 0.0507-0.17386 1.0026-0.0868 1.1189 0.1023 1.5224 0.051 1.5254-0.19393 3e-3 -0.25288 0.0524-0.25696 0.20499-0.017 0.11052 0.17384 0.61471 0.32047 1.1204 0.32584 0.50571 5e-3 2.5268 0.061 4.4914 0.1236 2.0607 0.0657 3.1241 0.0277 2.5135-0.0899-1.0024-0.19293-0.97448-0.20469 0.52917-0.22264 1.0204-0.0122 1.3985 0.0549 1.0583 0.18789-0.52917 0.20684-0.52917 0.20684 0 0.36816 1.8767 0.57213 8.8624 0.95833 8.0698 0.44614-0.55153-0.35643 0.37177-0.36744 1.0353-0.0123 0.60513 0.32385 2.2232-0.15602 3.0219-0.8962 0.32443-0.30067 0.67836-0.5675 0.78652-0.59297 0.10815-0.0255 0.2884-0.085 0.40055-0.13229 0.29667-0.12511 2.1641-2.634 2.1641-2.9074 0-0.12749 0.27486-0.67591 0.61079-1.2187 0.33594-0.54281 0.88411-1.6418 1.2182-2.4421 0.33406-0.80036 0.79749-1.864 1.0298-2.3635 0.31114-0.66897 0.3393-0.93605 0.10687-1.0135-0.23535-0.0785-0.24163-0.24343-0.0247-0.64877 0.21537-0.40242 0.34471-0.45652 0.49809-0.20835 0.1424 0.23041 0.34974 0.0348 0.66316-0.62571 0.25079-0.52852 0.57422-0.96093 0.71873-0.96093s0.19184-0.18478 0.10518-0.41062c-0.0867-0.22584-0.0481-0.34296 0.0857-0.26027 0.33722 0.20842 0.55445-0.21734 0.64911-1.2722 0.0715-0.79691 0.83768-2.0602 2.0156-3.3232 0.22025-0.23617 0.67451-0.81429 1.0095-1.2847 0.33496-0.47042 1.137-1.1647 1.7824-1.5429 0.64533-0.37819 1.1733-0.7991 1.1733-0.93536s0.20836-0.32304 0.46303-0.41506c0.8355-0.3019 2.9849-2.702 3.1474-3.5145 0.087-0.43498 0.25452-0.73133 0.37227-0.65855 0.11774 0.0728 0.28887 0.0113 0.38027-0.13659 0.10099-0.16341 1.743-0.26699 4.1855-0.26403 4.0193 5e-3 4.0193 5e-3 4.813 1.2516 1.6933 2.6598 4.9793 2.5749 7.8412-0.20241 1.1198-1.0868 4.2502-1.5444 4.7875-0.69986 0.14392 0.2262 0.19654 0.22 0.19952-0.0235 6e-3 -0.4648 5.31-0.4648 5.8108 0 0.28505 0.26458 0.31897 0.26458 0.16959 0-0.11324-0.20058-0.0305-0.33073 0.21015-0.33073 0.6099 0 0.78589 0.51031 0.24644 0.71457-0.4538 0.17183-0.8055 0.47468-3.4104 2.9367-0.5932 0.56065-1.2778 1.0958-1.5214 1.1893-0.24355 0.0935-0.44281 0.29272-0.44281 0.44281s-0.12367 0.27289-0.27481 0.27289-0.7698 0.47564-1.3748 1.057c-0.605 0.58133-1.3148 1.1251-1.5773 1.2084-0.26251 0.0833-0.47729 0.2545-0.47729 0.38041s-0.23812 0.30451-0.52917 0.39688c-0.29104 0.0924-0.52916 0.33577-0.52916 0.5409 0 0.20512-0.29766 0.56797-0.66146 0.80635-0.3638 0.23837-0.66146 0.59238-0.66146 0.7867 0 0.19431-0.19742 0.46378-0.43872 0.59881-0.24129 0.13504-0.45659 0.48821-0.47845 0.78483-0.0219 0.29662-0.16017 0.69806-0.30737 0.89211-0.40845 0.53841-0.85232 2.3057-0.98572 3.9247-0.22137 2.6865-1.3011 5.3696-2.8394 7.0554-0.55317 0.60626-1.379 1.8417-1.8352 2.7454-0.45621 0.90375-1.3307 2.1937-1.9432 2.8665-0.61258 0.67281-1.4602 1.6996-1.8835 2.2816s-0.83559 1.1179-0.91604 1.1906c-0.19256 0.17415-0.76361 1.087-0.99305 1.5875-0.10008 0.21828-0.33744 0.5542-0.52749 0.7465-0.19004 0.19229-0.34553 0.50514-0.34553 0.69521 0 0.19006-0.18625 0.50015-0.41388 0.68907-0.25784 0.21399-0.35723 0.56923-0.26362 0.94222 0.0827 0.32931 0.0363 0.66917-0.10298 0.75526-0.35539 0.21963-0.20761 2.8948 0.18611 3.3692 0.17886 0.21551 0.25057 0.46647 0.15936 0.55768-0.0912 0.0912 0.0289 0.46301 0.26688 0.82624 0.23799 0.36322 0.43271 0.81673 0.43271 1.0078s0.20836 0.54406 0.46303 0.78444c0.63599 0.60033 1.1245 1.213 1.1245 1.4104 0 0.15645 0.94952 1.3288 2.8383 3.5043 0.46966 0.54096 1.2676 1.7575 1.7731 2.7034 0.50556 0.94589 1.3462 2.196 1.8681 2.7781 1.6704 1.8631 2.5413 4.1078 3.0505 7.8626 0.16347 1.2054 0.40781 2.3047 0.54298 2.443 0.13517 0.13824 0.24576 0.47665 0.24576 0.75202 0 0.27536 0.23813 0.80339 0.52917 1.1734 0.29104 0.36999 0.52917 0.83526 0.52917 1.0339 0 0.19865 0.11487 0.36119 0.25527 0.36119 0.48973 0 0.86709 1.0593 0.52444 1.4721-0.35326 0.42566-1.1674 0.52866-0.912 0.11538 0.0899-0.14552-0.0291-0.26458-0.26459-0.26458-0.23545 0-0.35452 0.11906-0.26458 0.26458 0.23613 0.38207-6.1329 0.31085-7.2507-0.0811-1.264-0.44318-1.5957-1.0591-0.95295-1.7693 0.5044-0.55737 0.50404-0.55793-0.18907-0.29441-0.53229 0.20237-0.76987 0.17314-1.0175-0.12518-0.28384-0.34201-0.3771-0.34027-0.76893 0.0143-0.24526 0.22195-0.58397 0.40355-0.7527 0.40355-0.16872 0-0.27841 0.26245-0.24375 0.58323 0.11054 1.0229-1.1074 1.3904-4.935 1.489-2.6279 0.0677-3.4618 7e-3 -3.634-0.26458-0.16751-0.26425-0.22446-0.2697-0.2275-0.0217-5e-3 0.40586-2.0401 0.43864-2.7181 0.0438zm5.045-1.3227c1.96-0.68328 0.94821-3.4175-1.2647-3.4175-1.9696 0-2.2539 2.3873-0.4048 3.3986 0.66563 0.36408 0.67869 0.36422 1.6695 0.0188zm-4.3011-4.2343c0.27266-0.44117-0.34057-0.94708-0.70557-0.58209-0.30531 0.30531-0.11423 0.86972 0.29445 0.86972 0.12834 0 0.31335-0.12943 0.41112-0.28763zm15.917-1.8952c1.183-1.2925 0.98822-2.8771-0.45883-3.7319-0.95193-0.56232-1.6385-0.28097-2.2634 0.9276-1.1213 2.1683 1.1566 4.5148 2.7223 2.8043zm-7.6445-0.20648c2.9312-1.7871 2.5188-8.4228-0.63154-10.161-0.28101-0.15505-0.57047-0.35339-0.64323-0.44075-0.32027-0.38451-1.3229-0.77251-1.3229-0.51193 0 0.15064-0.30468 0.27389-0.67707 0.27389-0.4294 0-0.61057-0.10761-0.49527-0.29417 0.25925-0.41947-0.39403-0.7554-1.4782-0.76012-0.95252-4e-3 -2.9057 1.083-2.9057 1.6174 0 0.15371-0.23812 0.58219-0.52916 0.95219-0.60829 0.77332-0.75332 2.9685-0.19844 3.0035 0.26458 0.0167 0.26458 0.0476 0 0.15434-0.38138 0.15389-0.4398 0.924-0.0981 1.2932 0.12794 0.13825 0.36601 0.66807 0.52903 1.1774 0.96955 3.0291 5.9627 5.213 8.4506 3.6961zm-10.271-0.78571c0-0.35277-0.17639-0.52916-0.52917-0.52916s-0.52917 0.17639-0.52917 0.52916c0 0.35278 0.17639 0.52917 0.52917 0.52917s0.52917-0.17639 0.52917-0.52917zm-1.3229-1.9688c0-0.0642-0.11906-0.19026-0.26458-0.2802-0.14552-0.0899-0.26459-0.0374-0.26459 0.11668 0 0.15411 0.11907 0.2802 0.26459 0.2802s0.26458-0.0525 0.26458-0.11668zm17.727-3.175c0-0.20969-0.11083-0.44976-0.2463-0.53348-0.31456-0.19441-0.63092 0.30104-0.41515 0.65016 0.2433 0.39367 0.66145 0.3199 0.66145-0.11668zm-1.0583-3.0666c0-0.62861-0.70081-0.98422-1.1178-0.56721-0.20828 0.20828-0.19433 0.40197 0.0502 0.69659 0.47925 0.57745 1.0676 0.50615 1.0676-0.12938zm-46.831-4.7542c0-0.14552-0.1786-0.26458-0.39688-0.26458s-0.39687 0.11906-0.39687 0.26458 0.17859 0.26458 0.39687 0.26458 0.39688-0.11906 0.39688-0.26458zm5.8208-1.0583c0-0.14552-0.11906-0.26459-0.26458-0.26459s-0.26459 0.11907-0.26459 0.26459 0.11907 0.26458 0.26459 0.26458 0.26458-0.11906 0.26458-0.26458zm-3.3999-0.39688c0-0.13824-0.128-0.29402-0.28443-0.34616-0.15644-0.0522-0.28443 0.10363-0.28443 0.34616 0 0.24254 0.12799 0.39831 0.28443 0.34616 0.15643-0.0521 0.28443-0.20791 0.28443-0.34616zm-27.953-0.4153c0-0.20416-0.20836-0.41133-0.46303-0.46037-0.45607-0.0878-0.64461 0.47359-0.28112 0.83709 0.27734 0.27733 0.74415 0.041 0.74415-0.37672zm24.587-0.13276c0.54119-0.5412 0.52498-0.97824-0.0632-1.7047-0.84659-1.0455-2.696-0.55447-2.696 0.71579 0 1.1052 1.9456 1.8024 2.7592 0.98887zm-28.472-0.841c-0.1063-0.92384-1.137-1.1802-1.401-0.34852-0.23315 0.73458 0.0275 1.0761 0.82129 1.0761 0.56763 0 0.65133-0.10505 0.5797-0.7276zm30.74-0.8599c0-0.14552-0.0525-0.26458-0.11667-0.26458-0.0642 0-0.19026 0.11906-0.2802 0.26458-0.0899 0.14552-0.0374 0.26459 0.11668 0.26459 0.1541 0 0.28019-0.11907 0.28019-0.26459zm8.4857-0.39968c4.0994-1.3985 5.461-5.9859 2.6198-8.827-2.4006-2.4007-8.6822-3.0865-9.9203-1.0832-0.0942 0.15246-0.63084 0.56728-1.1925 0.92183-3.7166 2.3462-3.8763 4.5108-0.51889 7.0334 0.76944 0.57814 1.7475 1.3444 2.1735 1.7029 0.94981 0.79921 4.8167 0.94173 6.8384 0.25205zm18.389-3.2383c0.17375-0.84336 1.1183-0.77165 3.0452 0.23117 2.2202 1.1555 2.216 0.7938-8e-3 -0.68469-2.4025-1.5972-2.3942-1.6619 0.45985-3.5814 1.9349-1.3013 1.7126-1.4626-0.53281-0.38655-2.4707 1.184-2.782 1.1761-3.002-0.0765-0.51891-2.9557-0.53544-2.9858-0.7623-1.3891-0.37251 2.6219-0.68759 2.8013-3.0164 1.7172-2.0641-0.9609-2.2474-0.80555-0.45531 0.38592 2.499 1.6615 2.4879 1.777-0.34698 3.6036-1.6975 1.0937-2.2295 1.7635-0.75893 0.9554 1.1228-0.61701 3.146-1.3705 3.6799-1.3705 0.44758 0 0.75183 1.0127 0.75183 2.5025 0 1.3745 0.37928 1.3551 0.61-0.0312 0.11722-0.70435 0.26831-1.5485 0.33577-1.876zm-49.201 1.6524c2.7803-1.144 3.2224-5.0196 0.78457-6.879-2.062-1.5727-4.2051-1.476-6.8156 0.30753-4.4488 3.0395 0.77682 8.7332 6.0311 6.5714zm55.399-0.13101c0-0.14552-0.11906-0.26459-0.26458-0.26459s-0.26458 0.11907-0.26458 0.26459 0.11906 0.26458 0.26458 0.26458 0.26458-0.11906 0.26458-0.26458zm-42.267-2.4474c0.32743-0.32742 0.56394-0.68943 0.5256-0.80447-0.0383-0.11503 0.0551-0.44246 0.20774-0.7276 0.23186-0.43324 0.19189-0.51845-0.24318-0.51845-0.28997 0-0.59579-0.23677-0.69026-0.53441-0.16774-0.52852-0.17474-0.52807-0.63563 0.0411-0.41797 0.51618-0.55744 0.54364-1.3528 0.26639-0.88676-0.30913-0.88676-0.30913-0.30824 0.30668 0.69912 0.74417 0.71194 0.92025 0.1155 1.5861-0.4515 0.50406-0.44163 0.51228 0.3971 0.33049 0.65899-0.14283 0.89761-0.0887 1.0205 0.23153 0.20716 0.53984 0.25531 0.53098 0.96366-0.17737zm6.9218-6.3042c1.0245-1.2176 0.93094-2.2852-0.2433-2.7758-1.4893-0.62228-2.9458 0.0933-3.4289 1.6846-0.56241 1.8527 2.3125 2.7071 3.6722 1.0912zm-27.925-0.93403c0.48027-1.0541-0.22422-1.9561-1.5278-1.9561-0.69567 0-1.6698 1.1718-1.5676 1.8857 0.19937 1.3933 2.4691 1.4449 3.0954 0.0704zm56.572 0.11097c-0.0845-0.21107-0.14716-0.14838-0.15985 0.15985-0.0115 0.27891 0.051 0.43518 0.13896 0.34727 0.0879-0.0879 0.0973-0.31613 0.0209-0.50712zm-48.07-1.0087c0-0.14552-0.0525-0.26458-0.11668-0.26458-0.0642 0-0.19026 0.11906-0.28019 0.26458-0.0899 0.14552-0.0374 0.26459 0.11667 0.26459 0.15411 0 0.2802-0.11907 0.2802-0.26459zm-5.0738-0.61724c0.0577-0.29741-0.0931-0.44109-0.46302-0.44109-0.30171 0-0.54857 0.15875-0.54857 0.35278 0 0.81035 0.85705 0.88517 1.0116 0.0883zm27.828-0.3088c0-0.21828-0.11204-0.39687-0.24897-0.39687-0.33363 0-0.57258 0.41317-0.3612 0.62455 0.29797 0.29797 0.61017 0.18148 0.61017-0.22768zm3.6946-0.25299c0.35893-0.43248 0.15933-0.93763-0.37048-0.93763-0.58112 0-0.97955 0.65118-0.61903 1.0117 0.40716 0.40715 0.60224 0.39255 0.98951-0.0741zm-6.2081-1.2022c0.0899-0.14552-0.0221-0.26458-0.24897-0.26458s-0.41249 0.11906-0.41249 0.26458 0.11203 0.26459 0.24897 0.26459c0.13693 0 0.32255-0.11907 0.41249-0.26459zm38.136-0.41935c3.8591-1.2573 7.0951-5.6444 6.4845-8.791-0.16066-0.82787-0.4222-2.191-0.58121-3.0292-0.57319-3.0215-2.016-3.7264-5.218-2.5494-0.83311 0.30623-2.2196 0.81225-3.0812 1.1245-4.3366 1.5716-6.0853 10.933-2.4556 13.146 1.0492 0.63971 3.0658 0.6809 4.8516 0.0991zm8.5632-4.0786c0-0.14552-0.11204-0.26459-0.24897-0.26459s-0.32255 0.11907-0.41249 0.26459c-0.0899 0.14552 0.0221 0.26458 0.24897 0.26458s0.41249-0.11906 0.41249-0.26458zm1.3229-3.3293c0-0.46724-0.56958-0.38587-0.73311 0.10473-0.0576 0.1728 0.0838 0.31419 0.31419 0.31419 0.23041 0 0.41892-0.18852 0.41892-0.41892zm2.5136-1.1245c0-0.47854-0.51787-0.39118-0.62058 0.10469-0.0571 0.27588 0.042 0.39684 0.26458 0.32265 0.1958-0.0653 0.356-0.25757 0.356-0.42734zm-1.2738-1.9423c1.4005-1.3157-0.39066-3.4501-1.8142-2.1618-0.67584 0.61162-0.62185 1.8167 0.10418 2.3252 0.7729 0.54135 0.98099 0.52147 1.71-0.16341zm-19.099 0.0461c0.0899-0.14552 0.0374-0.26459-0.11668-0.26459-0.15411 0-0.2802 0.11907-0.2802 0.26459s0.0525 0.26458 0.11668 0.26458c0.0642 0 0.19026-0.11906 0.2802-0.26458zm1.4085-2.2047c0.0495-0.25521-0.0833-0.4411-0.31511-0.4411-0.49153 0-0.78819 0.43131-0.55555 0.80772 0.23932 0.38723 0.7676 0.16479 0.87066-0.36662zm2.0454-2.3162c0.27266-0.44118-0.34057-0.94708-0.70557-0.58209-0.30531 0.30531-0.11423 0.86972 0.29445 0.86972 0.12834 0 0.31335-0.12943 0.41112-0.28763zm4.6363-2.0733c0.94316-0.94315 0.9699-1.4354 0.12397-2.2813-1.0829-1.0829-2.8572-0.53629-3.2708 1.0075-0.52656 1.9653 1.5961 2.8246 3.1469 1.2738zm-4.7027-0.94277c0.0287-0.14353-0.15619-0.30109-0.41085-0.35013-0.28961-0.0558-0.46302 0.074-0.46302 0.3465 0 0.46032 0.78192 0.46356 0.87387 4e-3zm13.297-0.92967c0.57963 0 0.61529-0.0565 0.32708-0.51796-0.27493-0.44023-0.22563-0.62242 0.32849-1.214 0.65196-0.69605 0.65196-0.69605-0.2826-0.52174-0.85106 0.15875-0.95983 0.10765-1.2174-0.57192-0.28283-0.74624-0.28283-0.74624-0.58024-0.0186-0.1865 0.45625-0.4972 0.7276-0.83313 0.7276-0.60853 0-0.68587 0.27318-0.21161 0.74744 0.25575 0.25575 0.25527 0.43431-2e-3 0.84667-0.29108 0.46589-0.25756 0.52256 0.30892 0.52256 0.36079 0 0.7125 0.20011 0.81379 0.46302 0.1699 0.44097 0.19077 0.44097 0.43833 0 0.14296-0.25466 0.55268-0.46302 0.91049-0.46302zm11.494-7.6729c0-0.14552-0.11906-0.26458-0.26458-0.26458-0.14552 0-0.26458 0.11906-0.26458 0.26458s0.11906 0.26459 0.26458 0.26459c0.14552 0 0.26458-0.11907 0.26458-0.26459zm-14.42 67.204c0.73525-0.31595 1.4552-0.31595 1.4552 0 0 0.14552-0.44648 0.25621-0.99219 0.24599-0.79592-0.0149-0.88751-0.0636-0.46302-0.24599zm2.249 0c0-0.31411 0.45966-0.31411 1.1906 0 0.44344 0.19056 0.38987 0.2304-0.33073 0.24599-0.47295 0.0102-0.8599-0.10047-0.8599-0.24599zm11.246-2e-3c0.19389-0.31372 0.841-0.34813 1.0226-0.0544 0.0709 0.11465-0.16678 0.23292-0.52808 0.26282-0.37869 0.0313-0.58812-0.0569-0.49448-0.20845zm-42.864-43.919c0.0899-0.14552 0.34211-0.26459 0.5604-0.26459 0.21828 0 0.32329 0.11907 0.23335 0.26459-0.0899 0.14552-0.34211 0.26458-0.5604 0.26458-0.21828 0-0.32329-0.11906-0.23335-0.26458zm-43.656-3.9688c-0.0899-0.14552-0.0445-0.26459 0.10106-0.26459 0.14552 0 0.33817 0.11907 0.42811 0.26459 0.0899 0.14552 0.0445 0.26458-0.10107 0.26458-0.14552 0-0.33816-0.11906-0.4281-0.26458zm51.197 0.0312c0-0.14552 0.11907-0.33817 0.26459-0.42811 0.14552-0.0899 0.26458-0.0445 0.26458 0.10106 0 0.14552-0.11906 0.33817-0.26458 0.42811-0.14552 0.0899-0.26459 0.0445-0.26459-0.10106zm3.7042-5.4708c0-0.22687 0.12101-0.3377 0.2689-0.2463 0.1479 0.0914 0.2004 0.27703 0.11668 0.41249-0.22681 0.36699-0.38558 0.29856-0.38558-0.16619zm43.787-17.052c-0.052-0.0841 0.133-0.1701 0.41109-0.19105 0.2781-0.0209 0.55876 0.0479 0.6237 0.15296 0.065 0.10508-0.12004 0.19105-0.41109 0.19105-0.29104 0-0.5717-0.0688-0.6237-0.15296z" fill="#4c4c4c"/>
   <path d="m74.772 216.72c-0.97334-0.88901-1.6189-2.2555-1.6189-3.4268 0-0.56892-0.30282-1.1393-1.0229-1.9267-1.2247-1.3392-1.7765-2.3636-2.0329-3.7736-0.10491-0.57705-0.39906-1.4659-0.65367-1.9752-0.25461-0.50932-0.65723-1.6999-0.89471-2.6458-2.0034-7.9796-5.622-9.2447-17.224-6.0218-0.58208 0.1617-2.4871 0.31056-4.2333 0.3308-1.8896 0.0219-3.6274 0.18513-4.2925 0.40315-1.761 0.57728-4.289-0.18482-7.5743-2.2833-3.8074-2.432-5.2191-2.5164-9.8848-0.59128-3.2996 1.3615-4.8439 1.9087-6.8233 2.4179-0.87312 0.22463-2.2423 0.65264-3.0427 0.95114-1.0228 0.38149-2.1038 0.54531-3.638 0.55138-2.1828 9e-3 -2.1828 9e-3 -2.1828-1.058 0-0.70405 0.13491-1.1184 0.39687-1.2189 0.47327-0.18161 0.53995-1.1832 0.07243-1.0879-0.17845 0.0364-0.36462-0.1964-0.41372-0.51729-0.0871-0.56921-0.0689-0.57328 0.74574-0.16688 1.5804 0.7884 3.9625-0.0184 3.9602-1.3412-0.0029-1.6451-1.6551-2.9116-3.5968-2.7572-1.053 0.0837-1.0851 0.0622-1.1155-0.74894-0.03081-0.82211 0.2311-0.97568 0.92464-0.54214 0.17185 0.10742 0.37162 0.0996 0.44394-0.0174 0.07232-0.11702-0.21711-0.36706-0.64318-0.55566-1.5243-0.6747-1.0136-4.7577 0.59878-4.788 0.24607-5e-3 0.53258-0.14623 0.63669-0.31467 0.13366-0.21626 0.0022-0.25206-0.44741-0.1218-1.6798 0.48667-1.5627 0.70146-1.5627-2.8661 0-2.6571 0.07378-3.2921 0.39687-3.4161 0.51427-0.19735 0.51427-0.69807 0-0.69807-0.83572 0-0.45955-1.2442 0.42995-1.4221 2.2171-0.44342 4.3136-0.1958 5.6698 0.66971 1.0565 0.67419 1.7018 0.87036 3.3499 1.0183 1.1227 0.10077 2.2039 0.31819 2.4027 0.48316 0.6811 0.56526 7.0879 3.7346 8.1008 4.0073 1.4251 0.38373 2.4996-0.13304 4.4112-2.1216 3.287-3.4193 6.3471-4.5149 9.2108-3.2978 1.4967 0.63611 1.7754 0.67715 2.7001 0.39761 1.99-0.60162 3.2231-0.60671 4.1769-0.0172 0.56506 0.34923 1.3336 0.54722 2.1241 0.54722 0.68128 0 1.5774 0.17518 1.9915 0.3893 0.41405 0.21411 1.2118 0.50728 1.7728 0.65149 0.56099 0.14421 1.8988 0.56434 2.9728 0.93362 4.7001 1.616 7.8444 0.22528 8.8453-3.9121 0.21744-0.89881 0.54336-2.2295 0.72427-2.9571 0.1809-0.72761 0.40509-1.93 0.4982-2.672 0.0931-0.74202 0.37336-1.6606 0.62277-2.0412 0.24941-0.38066 0.45347-1.0573 0.45347-1.5037 0-1.2962 0.71908-2.6945 1.9926-3.8747 1.0829-1.0036 1.1832-1.2039 1.1918-2.3812 0.0205-2.8148 2.8472-5.061 7.5792-6.0226 2.8793-0.58514 4.3177-2.0259 4.3177-4.325 0-0.4539 0.11871-1.1375 0.26379-1.5191 0.17532-0.46114 0.17532-0.63914 0-0.53078-0.14508 0.0897-0.26379 0.0369-0.26379-0.11717 0-0.15411 0.29766-0.2802 0.66146-0.2802 0.36381 0 0.66146 0.0893 0.66146 0.19844s0.28629 0.19843 0.63619 0.19843c0.34991 0 0.58101-0.0893 0.51356-0.19843-0.0675-0.10914 0.33671-0.19844 0.89815-0.19844 0.91491 0 1.0536 0.0907 1.3369 0.87413 0.97808 2.7048 3.9225 3.5726 6.925 2.0409 1.0039-0.51214 2.3902-1.9242 2.3902-2.4344 0-0.14993 0.18478-0.20169 0.41062-0.11502 0.23546 0.0904 0.34166 0.046 0.24897-0.10399-0.0942-0.15247 0.20347-0.25986 0.71386-0.2575 0.69577 3e-3 0.79403 0.0627 0.47863 0.28954-0.31819 0.2289-0.29197 0.24757 0.1323 0.0942 1.1666-0.4217 1.7824-0.4503 2.0085-0.0933 0.16719 0.26401 0.23353 0.27417 0.23644 0.0362 3e-3 -0.23614 0.59052-0.32957 2.0546-0.32668 1.4216 3e-3 1.9288 0.0827 1.6536 0.26053-0.21828 0.14107-0.27781 0.25875-0.13229 0.26152 0.14552 3e-3 -0.15214 0.25898-0.66146 0.56935-0.94271 0.57447-1.6128 1.2324-2.292 2.2507-0.2084 0.31242-0.81975 0.85499-1.3586 1.2057-1.3566 0.88307-4.4697 2.8881-5.7421 3.6984-1.9766 1.2586-3.3494 3.3332-2.5828 3.9031 0.28797 0.21407 0.4715 2.6336 0.43282 5.7061-0.04 3.1742-0.46135 4.3364-1.9451 5.365-0.77341 0.53613-1.2263 1.1604-1.7703 2.4402-0.65448 1.5396-1.2751 2.2607-5.9248 6.8835-7.47 7.4269-7.4375 7.9461 0.96075 15.365 2.4751 2.1864 4.5231 4.6684 4.8677 5.8992 0.27499 0.98216 0.60426 1.4577 1.4168 2.0464 2.4514 1.7758 3.1067 4.8787 2.1187 10.032-0.44173 2.3043-0.44173 2.3043 0.26458 3.5095 0.93162 1.5897 1.01 1.5079-1.4453 1.5079-3.8517 0-4.7461-1.025-2.6109-2.9919 1.3456-1.2395 1.8588-2.227 0.72761-1.3999-2.6795 1.9591-2.9763 1.9502-3.548-0.10612-0.57004-2.0503-0.75148-2.0039-0.75148 0.19227 0 2.1722-0.33959 2.3533-2.1182 1.1296-1.7107-1.177-2.1356-0.82706-0.45864 0.37771 1.4715 1.0572 1.7193 1.5986 0.85706 1.8723-0.29104 0.0924-0.52917 0.25915-0.52917 0.37061 0 0.2813-0.235 0.3092-3.9026 0.46344-2.4291 0.10216-3.2412 0.0564-3.2412-0.18283 0-0.23175-0.12224-0.2197-0.44641 0.044-0.38635 0.31427-0.42524 0.3065-0.28906-0.0577 0.30391-0.8129-0.21016-1.1268-0.75556-0.46133-0.6943 0.84712-0.93796 0.84025-1.9171-0.0541zm7.2358-0.51166c1.8118-1.5037-1.4677-4.8067-3.928-3.9561-1.7186 0.59417-1.6017 3.2685 0.17826 4.0782 0.98166 0.44653 3.1496 0.37597 3.7497-0.12203zm-5.8097-1.5986c0.27501-0.44497-0.14162-1.3191-0.62872-1.3191-0.93701 0-1.4385 1.1366-0.7883 1.7868 0.31641 0.31641 1.0903 0.061 1.417-0.46766zm9.9205-2.7754c0.53228-0.56658 0.657-1.0741 0.86148-3.5057 0.14475-1.7214 0.43238-3.2754 0.72899-3.9384 0.53479-1.1956 0.16493-2.418-1.0927-3.6115-0.27432-0.26033-0.49876-0.71704-0.49876-1.0149 0-0.31044-0.66172-1.1931-1.5505-2.0682-5.6665-5.5792-11.254-5.7772-12.185-0.43182-0.2964 1.7021-0.0564 4.9024 0.44005 5.8687 0.14151 0.27542 0.32699 0.95403 0.41219 1.508 0.0889 0.57799 0.49922 1.3994 0.96285 1.9274 0.44437 0.50611 0.80794 1.0694 0.80794 1.2517 0 0.86648 1.4585 2.0524 2.7781 2.2589 0.7276 0.11388 1.561 0.33637 1.8521 0.49442 3.4468 1.8717 5.5292 2.2768 6.4833 1.2613zm-10.209 0.23732c0.53092-0.20373 0.54559-1.0569 0.0216-1.258-0.58404-0.22412-1.1906 0.0862-1.1906 0.60906 0 0.75705 0.36264 0.95836 1.169 0.64894zm17.55-0.52295c-0.25213-0.25213-0.75763 0.15627-0.56973 0.4603 0.11169 0.18071 0.25968 0.17615 0.4497-0.0139 0.15578-0.15577 0.20979-0.35666 0.12003-0.44642zm-14.75-0.37479c0-0.35277-0.17639-0.52916-0.52917-0.52916s-0.52917 0.17639-0.52917 0.52916c0 0.35278 0.17639 0.52917 0.52917 0.52917s0.52917-0.17639 0.52917-0.52917zm12.783-0.5549c0.63297-0.2884 1.5044-1.7423 1.5044-2.5099 0-1.5665-1.9632-3.0908-3.0574-2.3739-2.5545 1.6738-1.1432 6.1122 1.553 4.8838zm-17.106-1.1818c0.29509-0.76899-0.38053-1.7851-1.0428-1.5683-0.3233 0.10585-0.92379 0.18251-1.3344 0.17036-0.47533-0.0141-0.70765 0.0947-0.63941 0.29946 0.059 0.17687 0.27587 0.32157 0.48202 0.32157s0.52746 0.26789 0.71401 0.59531c0.3954 0.69401 1.5786 0.81201 1.8206 0.18157zm19.933-1.9675c0-0.14552-0.12609-0.26459-0.28019-0.26459-0.15411 0-0.20662 0.11907-0.11668 0.26459 0.0899 0.14552 0.21603 0.26458 0.2802 0.26458 0.0642 0 0.11667-0.11906 0.11667-0.26458zm-21.431-0.69807c0-0.49825-0.75247-0.77196-1.1178-0.40661-0.20828 0.20828-0.19795 0.3976 0.0371 0.68086 0.37797 0.45542 1.0807 0.27708 1.0807-0.27425zm21.106-0.67446c-0.16353-0.4906-0.73312-0.57197-0.73312-0.10473 0 0.23041 0.18852 0.41892 0.41892 0.41892 0.23041 0 0.3718-0.14138 0.3142-0.31419zm-4.9664-0.63125c0-0.86845-0.88513-0.79116-1.0106 0.0882-0.0642 0.45009 0.0471 0.59261 0.46302 0.59261 0.41184 0 0.54757-0.16876 0.54757-0.68086zm4.4801-0.34417c0.20343-0.3801 0.14843-0.60171-0.23559-0.94924-0.60789-0.55014-1.4268-0.44241-1.5513 0.20408-0.20839 1.0821 1.2755 1.7008 1.7869 0.74516zm-21.608-0.19146c0.2525-0.2525-0.0925-0.90018-0.47953-0.90018-0.44322 0-0.73238 0.44441-0.51647 0.79375 0.18071 0.2924 0.74928 0.35315 0.996 0.10643zm18.583-1.4293c0-0.41313-0.17092-0.68713-0.46382-0.74354-0.52374-0.10086-0.86434 0.53267-0.62362 1.16 0.25234 0.65759 1.0874 0.3378 1.0874-0.41643zm-19.182-0.52917c0-0.29398-0.17639-0.52917-0.39687-0.52917-0.22049 0-0.39688 0.23519-0.39688 0.52917s0.17639 0.52917 0.39688 0.52917c0.22048 0 0.39687-0.23519 0.39687-0.52917zm18.124-2.5172c0-0.43456 0.10665-0.8674 0.237-0.96186 0.35938-0.26042-0.0289-1.0189-0.52158-1.0189-0.26642 0-0.37775 0.14527-0.28886 0.37691 0.0839 0.21852-0.12662 0.55464-0.50086 0.79985-0.75779 0.49653-0.79882 0.74878-0.2165 1.3311 0.65642 0.65642 1.2908 0.39737 1.2908-0.52711zm-18.521-0.65783c0-0.2143-0.20836-0.42976-0.46302-0.4788-0.32487-0.0626-0.46302 0.0803-0.46302 0.4788s0.13815 0.54136 0.46302 0.4788c0.25466-0.049 0.46302-0.2645 0.46302-0.4788zm16.933-1.3413c0-0.20416-0.20836-0.41133-0.46302-0.46037-0.45607-0.0878-0.64461 0.47359-0.28112 0.83708 0.27734 0.27734 0.74414 0.041 0.74414-0.37671zm-17.066-1.0399c0-0.35278-0.17639-0.52917-0.52917-0.52917s-0.52917 0.17639-0.52917 0.52917 0.17639 0.52917 0.52917 0.52917 0.52917-0.17639 0.52917-0.52917zm15.346-0.79375c0-0.14552-0.11906-0.26458-0.26458-0.26458s-0.26459 0.11906-0.26459 0.26458 0.11907 0.26458 0.26459 0.26458 0.26458-0.11906 0.26458-0.26458zm-73.025-0.41627c0-0.2464-0.18001-0.38137-0.4411-0.33073-0.66378 0.12873-0.75492 0.747-0.11012 0.747 0.325 0 0.55122-0.17084 0.55122-0.41627zm29.633 0.0194c0.26278-0.31663 0.26278-0.47711 0-0.79375-0.4461-0.53751-0.98478-0.49952-1.3012 0.0918-0.47486 0.88728 0.64573 1.4918 1.3012 0.70199zm-27.781-0.40956c0-0.35768-0.52219-0.57577-0.96851-0.4045-0.32651 0.12529-0.3477 0.23876-0.10028 0.53688 0.31359 0.37786 1.0688 0.28431 1.0688-0.13238zm25.929 0.27727c0-0.14552-0.18562-0.26458-0.41249-0.26458-0.22687 0-0.3389 0.11906-0.24897 0.26458 0.08994 0.14552 0.27556 0.26459 0.41249 0.26459 0.13693 0 0.24897-0.11907 0.24897-0.26459zm8.2153-0.67735c0.16231-0.19557 0.21965-0.59333 0.12743-0.88392-0.3571-1.1251-2.5219-1.0426-2.5219 0.0961 0 1.1987 1.613 1.7294 2.3944 0.78782zm21.477-0.0126c-0.13076-0.89057-0.0484-5.5015 0.11447-6.4088 0.26271-1.4635 0.74126-1.3863 4.2385 0.68359 1.044 0.61791 2.0117 1.1235 2.1504 1.1235 0.13869 0 0.40039 0.1786 0.58154 0.39688 0.41984 0.50587 0.95867 0.50907 1.1514 7e-3 0.10427-0.2717-0.3487-0.67364-1.493-1.3248-4.2185-2.4006-5.2717-3.458-4.2457-4.2626 0.68688-0.53866 3.9939-2.5002 5.2167-3.0942 0.95306-0.46299 0.99516-0.52963 0.59035-0.93445-0.34693-0.34693-0.5294-0.37265-0.89396-0.126-0.9984 0.67547-4.4743 2.2492-5.2569 2.38-1.2931 0.21623-1.94-0.60059-1.9802-2.5004-0.0945-4.4654-0.0894-4.4217-0.52877-4.5067-0.37138-0.0718-0.43551 0.29898-0.47976 2.7741-0.1009 5.6437-0.27488 5.818-3.9253 3.9326-1.2862-0.6643-2.4418-1.2078-2.568-1.2078-0.12621 0-0.44277-0.19304-0.70347-0.42897-0.48634-0.44011-1.2875-0.33782-1.2875 0.16441 0 0.15465 0.17859 0.33698 0.39688 0.40517 0.71508 0.22341 1.0431 0.38632 2.2543 1.1197 0.65777 0.39826 1.6997 1.0218 2.3154 1.3856 1.1065 0.65383 1.5704 1.3356 1.2554 1.8452-0.19127 0.30947-3.5006 2.4717-4.1715 2.7255-0.42649 0.16137-0.6811 1.2501-0.29235 1.2501 0.09387 0 1.0371-0.41672 2.096-0.92605 3.4017-1.6361 3.948-1.2851 4.3534 2.7968 0.15072 1.5177 0.33028 2.9182 0.39902 3.1122 0.18623 0.5256 0.79776 0.19848 0.71264-0.38121zm14.493 0.0441c0-0.20969-0.12944-0.46126-0.28764-0.55903-0.3736-0.2309-0.88355 0.27906-0.65265 0.65265 0.25935 0.41964 0.94029 0.35184 0.94029-0.0936zm-33.916-0.74626c0.06115-0.3175-0.08134-0.45998-0.45998-0.45998s-0.54857 0.16992-0.54857 0.54857c0 0.67803 0.87573 0.60111 1.0085-0.0886zm-33.867-0.80861c-0.05931-0.41663-0.26538-0.57741-0.74004-0.57741-0.74528 0-1.0314 0.72219-0.52686 1.3301 0.45779 0.55161 1.375 7e-3 1.2669-0.75266zm24.824 0.59163c0.49012-0.30291 0.88207-0.68986 0.871-0.85989-0.18877-2.8992-5.1858-5.2928-6.2807-3.0085-1.285 2.681 2.7093 5.5373 5.4097 3.8684zm3.1401-0.10708c0-0.58372-0.82256-0.8744-1.2539-0.4431-0.4447 0.4447-0.0061 1.1476 0.65736 1.0533 0.3903-0.0554 0.5965-0.26636 0.5965-0.61024zm8.0602 0.27254c0.39374-0.47442 0.14334-0.93763-0.50686-0.93763-0.59196 0-0.87474 0.61963-0.46827 1.0261 0.39247 0.39247 0.59093 0.37447 0.97512-0.0885zm-32.799-0.27617c0.40843-0.49212-0.06709-1.1906-0.81053-1.1906-0.61661 0-0.85562 0.3937-0.64392 1.0607 0.19735 0.62178 0.98766 0.69238 1.4545 0.12992zm34.364-0.10676c0.42689-0.27039 0.17214-0.81928-0.38024-0.81928-0.20969 0-0.38126 0.0498-0.38126 0.11065 0 0.0609-0.07227 0.29899-0.1606 0.52917-0.17702 0.46129 0.32339 0.55868 0.9221 0.17946zm-32.541-0.65188c0.22614-0.27249 0.21562-0.432-0.04262-0.64633-0.45736-0.37957-1.1089 0.0431-0.90114 0.58452 0.19918 0.51905 0.54547 0.54173 0.94377 0.0618zm60.222-0.17103c0-0.56713-0.7688-0.48521-0.8803 0.0938-0.0681 0.35359 0.0397 0.46135 0.39325 0.39326 0.26787-0.0516 0.48705-0.27077 0.48705-0.48706zm-24.521-0.61361c0.05768-0.29741-0.09314-0.44109-0.46302-0.44109-0.30171 0-0.54857 0.15875-0.54857 0.35277 0 0.81036 0.85705 0.88518 1.0116 0.0883zm-22.178 0.0881c0-0.14552-0.11906-0.26458-0.26458-0.26458s-0.26458 0.11906-0.26458 0.26458 0.11906 0.26459 0.26458 0.26459 0.26458-0.11907 0.26458-0.26459zm17.489-0.61018c5.9272-1.9427 8.648-6.2238 5.5137-8.6756-5.1019-3.991-11.486-4.957-14.42-2.1819-0.59118 0.55916-1.8014 1.5323-2.6893 2.1626-1.6298 1.1568-2.5254 2.4239-2.2592 3.1964 0.23805 0.6909 2.5049 2.9118 3.6714 3.5969 0.59813 0.3513 1.4912 1.0424 1.9846 1.5358 1.0265 1.0265 5.5654 1.2291 8.199 0.36588zm-27.854-0.27164c0.05768-0.29741-0.09314-0.44109-0.46302-0.44109-0.30171 0-0.54857 0.15875-0.54857 0.35277 0 0.81036 0.85704 0.88518 1.0116 0.0883zm18.681 0.38264c0.19915-0.32223-0.5543-0.90974-0.89592-0.6986-0.4686 0.28961-0.30489 0.9332 0.23738 0.9332 0.28245 0 0.5788-0.10557 0.65854-0.2346zm36.327-0.21051c0.10782-0.32386-0.92866-1.0237-1.1654-0.78689-0.0736 0.0736-0.0532 0.38766 0.0453 0.69794 0.18627 0.58687 0.93463 0.64629 1.1202 0.0889zm-45.583-1.3408c-0.41404-1.7325-0.48406-3.1471-0.16551-3.344 0.24448-0.1511 2.2892 0.40409 2.5877 0.70264 0.27854 0.27854 0.63492 0.23889 0.63492-0.0706 0-0.14552-0.12073-0.26458-0.26829-0.26458-0.42252 0-2.1061-1.1616-2.1092-1.4552-0.0015-0.14552 0.53822-0.60639 1.1995-1.0242 1.4222-0.89853 1.3787-1.1059-0.14592-0.69536-1.8654 0.50229-2.2199-0.28966-1.5399-3.4398 0.04712-0.21828-0.03339-0.39688-0.17891-0.39688s-0.26773 0.11906-0.27158 0.26458c-0.0038 0.14553-0.0734 0.38365-0.15456 0.52917-0.08116 0.14552-0.3083 0.96135-0.50476 1.813-0.19646 0.85159-0.53224 1.6155-0.74617 1.6976-0.4349 0.16688-2.5641-0.94017-4.0776-2.1201-0.93447-0.72851-0.99219-0.74143-0.99219-0.22211 0 0.30327 0.13566 0.5514 0.30147 0.5514s1.1382 0.67603 2.1608 1.5023c1.8593 1.5023 1.8593 1.5023 0.55843 2.642-0.7155 0.62685-1.5093 1.209-1.7639 1.2937-0.25466 0.0847-0.46302 0.26499-0.46302 0.40071 0 0.13571-0.17157 0.24675-0.38126 0.24675-0.46798 0-0.76616 0.43555-0.54413 0.79481 0.09752 0.15778 0.5067 9e-3 1.0078-0.36666 1.1835-0.88706 2.97-1.7511 3.6206-1.7511 0.50226 0 1.5886 1.8307 1.5886 2.6771 0 0.24988 0.78286 1.5563 0.93261 1.5563 0.0429 0-0.08562-0.68461-0.28559-1.5214zm25.497 0.92301c0.06114-0.3175-0.08134-0.45999-0.45998-0.45999s-0.54857 0.16993-0.54857 0.54857c0 0.67803 0.87573 0.60111 1.0085-0.0886zm-36.93-1.3175c2.3376-1.2827 4.011-3.6036 3.0421-4.219-0.25661-0.163-0.25557-0.20784 0.0049-0.21103 1.1026-0.0135-1.0481-2.5303-3.1316-3.6646-1.3497-0.7348-4.0868-1.3204-5.3937-1.1539-0.70787 0.0902-4.7741 2.8482-5.4316 3.6841-1.2444 1.5819-0.01886 3.8691 2.8601 5.3378 0.55658 0.28394 1.1805 0.71939 1.3866 0.96765 0.67432 0.8125 4.6348 0.37201 6.6633-0.74109zm3.8722 0.76705c0.34955-0.42117 0.13352-0.70326-0.53857-0.70326-0.47402 0-0.65981 0.53082-0.30868 0.88195 0.26726 0.26726 0.52168 0.2136 0.84725-0.17869zm34.95-0.0302c0.30579-0.36846 0.18018-0.9421-0.20444-0.93358-0.47532 0.0105-0.84535 0.47905-0.69264 0.877 0.2086 0.5436 0.47874 0.56064 0.89708 0.0566zm-49.071-8.346c0.08994-0.14552 0.03743-0.26459-0.11668-0.26459-0.15411 0-0.2802 0.11907-0.2802 0.26459s0.0525 0.26458 0.11668 0.26458c0.06417 0 0.19026-0.11906 0.2802-0.26458zm14.155-0.79375c0-0.29398-0.17639-0.52917-0.39688-0.52917-0.4028 0-0.54273 0.5597-0.22049 0.88194 0.33544 0.33544 0.61736 0.17434 0.61736-0.35277zm13.333 0.12801c1.5313-0.72664 2.252-2.767 1.2851-3.6383-1.6599-1.4958-4.6523-0.049-4.6523 2.2494 0 1.5465 1.6236 2.2162 3.3671 1.3888zm-26.033-0.52489c0-0.22048 0.23519-0.39687 0.52917-0.39687 0.29398 0 0.52917-0.17639 0.52917-0.39688 0-0.61813-0.68696-0.46698-1.1602 0.25528-0.49624 0.75735-0.5272 0.93535-0.16272 0.93535 0.14552 0 0.26458-0.1786 0.26458-0.39688zm-1.4913-0.46302c1.0108-0.91893 1.1108-1.6613 0.32918-2.443-1.1305-1.1306-2.7434-0.76861-3.3188 0.74476-0.71423 1.8786 1.4432 3.1041 2.9896 1.6982zm47.217 0.0207c-0.0465-0.31603-0.23331-0.62358-0.41514-0.68346-0.47973-0.15799-0.74641 0.73552-0.30328 1.0161 0.59688 0.37794 0.80855 0.27993 0.71842-0.33265zm-16.129-0.0424c0.40551-0.48861-0.25402-1.3831-0.8509-1.1541-0.63027 0.24186-0.57853 1.5065 0.06164 1.5065 0.27322 0 0.62839-0.15859 0.78926-0.35243zm-18.799-0.37521c-0.04904-0.25467-0.2645-0.46303-0.4788-0.46303-0.2143 0-0.42976 0.20836-0.4788 0.46303-0.06256 0.32486 0.0803 0.46302 0.4788 0.46302 0.3985 0 0.54136-0.13816 0.4788-0.46302zm54.995 0.0484c0.23995-0.6253-0.32304-1.0704-0.82598-0.65298-0.22445 0.18627-0.40809 0.5027-0.40809 0.70316 0 0.50289 1.038 0.46068 1.2341-0.0502zm-22.401-0.77597c0-0.21828-0.17859-0.39687-0.39688-0.39687s-0.39688 0.17859-0.39688 0.39687 0.17859 0.39688 0.39688 0.39688 0.39688-0.1786 0.39688-0.39688zm-35.586-0.54763c0-0.27692-0.20872-0.54369-0.46382-0.59282-0.58612-0.11287-0.9349 0.71409-0.43463 1.0305 0.52429 0.33162 0.89845 0.14934 0.89845-0.4377zm-5.1528-0.52797c0.35365-0.93018 0.36899-0.90881-0.65239-0.90881-1.0646 0-1.3423 0.30963-0.94458 1.0529 0.40619 0.75897 1.2837 0.67982 1.597-0.14405zm65.161 0.28544c0.0287-0.14353-0.15619-0.30109-0.41085-0.35013-0.28962-0.0558-0.46303 0.074-0.46303 0.3465 0 0.46032 0.78193 0.46356 0.87388 4e-3zm-62.171-0.0454c0.23927-0.23927-0.3537-0.91348-0.64504-0.73342-0.36479 0.22545-0.27598 0.90751 0.11817 0.90751 0.19403 0 0.43112-0.0783 0.52687-0.17409zm34.707-0.3587c0-0.56713-0.76879-0.48522-0.8803 0.0938-0.06809 0.35359 0.03966 0.46135 0.39325 0.39325 0.26788-0.0516 0.48705-0.27076 0.48705-0.48705zm-9.705-0.45939c0.06842-0.48173-0.04219-0.59532-0.5797-0.59532-0.75374 0-1.0794 0.36572-0.8524 0.95727 0.23921 0.62337 1.3314 0.34734 1.4321-0.36195zm-8.6835 0.19843c0-0.14552-0.11906-0.26458-0.26458-0.26458-0.14552 0-0.26458 0.11906-0.26458 0.26458s0.11906 0.26459 0.26458 0.26459c0.14552 0 0.26458-0.11907 0.26458-0.26459zm12.18-0.28149c0.21693-0.40534 0.21098-0.64401-0.0231-0.92604-0.73697-0.888-2.0845-0.012-1.5417 1.0023 0.34038 0.63602 1.2062 0.59384 1.5648-0.0762zm4.264 0.1492c0-0.13824-0.12799-0.29402-0.28443-0.34616-0.15644-0.0522-0.28443 0.10363-0.28443 0.34616 0 0.24254 0.12799 0.39831 0.28443 0.34616 0.15644-0.0521 0.28443-0.20791 0.28443-0.34616zm-2.0098-0.15534c0.25712-0.41603-0.29872-0.87045-0.82001-0.67041-0.36089 0.13849-0.38302 0.24458-0.11768 0.5643 0.38715 0.46649 0.69354 0.50116 0.93769 0.10611zm32.397 0.17096c0-0.0642-0.11906-0.19026-0.26459-0.2802-0.14552-0.0899-0.26458-0.0374-0.26458 0.11667 0 0.15411 0.11906 0.2802 0.26458 0.2802 0.14553 0 0.26459-0.0525 0.26459-0.11667zm-45.04-1.1566c0.0585-0.17551-0.13858-0.3142-0.44648-0.3142-0.54962 0-0.71436 0.27783-0.36931 0.62288 0.24513 0.24513 0.68692 0.078 0.8158-0.30868zm46.627-0.069c0-0.37865-0.14249-0.52113-0.45999-0.45999-0.68969 0.13283-0.76661 1.0086-0.0886 1.0086 0.37864 0 0.54857-0.16992 0.54857-0.54856zm-70.411 0.0449c0.42689-0.27039 0.17214-0.81928-0.38024-0.81928-0.20969 0-0.38126 0.23812-0.38126 0.52916 0 0.57444 0.1952 0.6488 0.7615 0.29012zm28.21-0.42241c0-0.65742-0.9675-0.85223-1.435-0.28894-0.46132 0.55586-0.10286 0.99607 0.73238 0.89942 0.49913-0.0578 0.70262-0.23457 0.70262-0.61048zm37.79 0.20605c1.5717-0.56335 4.5876-3.0045 5.108-4.1345 0.21125-0.45872 0.67656-1.2386 1.034-1.733 0.75074-1.0385 0.77501-1.4567 0.26504-4.5673-0.99264-6.0546-1.4377-6.3184-7.2334-4.2876-3.4798 1.2193-3.5247 1.2454-4.2187 2.4505-0.38582 0.66995-0.95902 1.5753-1.2738 2.0118-1.0738 1.4892-1.5046 5.63-0.79335 7.6243 0.99206 2.7817 3.8011 3.8228 7.1122 2.6359zm-39.907-0.33835c-0.08994-0.14552-0.27556-0.26458-0.41249-0.26458-0.13693 0-0.24897 0.11906-0.24897 0.26458s0.18562 0.26458 0.41249 0.26458c0.22687 0 0.3389-0.11906 0.24897-0.26458zm-27.71-0.31419c-0.16353-0.4906-0.73312-0.57197-0.73312-0.10473 0 0.2304 0.18852 0.41892 0.41892 0.41892s0.3718-0.14139 0.31419-0.31419zm73.341-0.0711c0.42727-0.51483 0.1263-0.93763-0.66746-0.93763-0.69023 0-0.84866 0.48511-0.32834 1.0054 0.41358 0.41359 0.60723 0.4004 0.9958-0.0678zm-15.601-0.93763c0-0.35277-0.17639-0.52916-0.52917-0.52916s-0.52917 0.17639-0.52917 0.52916c0 0.35278 0.17639 0.52917 0.52917 0.52917s0.52917-0.17639 0.52917-0.52917zm17.081-1.2975c-0.28916-0.46786-0.94174-0.33267-0.94174 0.19509 0 0.26679 0.0822 0.56728 0.18269 0.66776 0.26999 0.26999 0.96846-0.524 0.75905-0.86285zm-16.906-0.96922c0.20852-0.54341-0.21001-0.94953-0.67952-0.65936-0.39986 0.24713-0.21569 1.074 0.2392 1.074 0.15466 0 0.3528-0.1866 0.44032-0.41466zm18.637-0.0834c0.81322-0.65851 0.37295-1.8832-0.67701-1.8832-1.0293 0-1.6945 1.1621-1.064 1.8589 0.58983 0.65176 0.95972 0.65693 1.741 0.0243zm-18.151-3.2097c0-0.56714-0.7688-0.48522-0.8803 0.0938-0.0681 0.35358 0.0397 0.46134 0.39325 0.39325 0.26787-0.0516 0.48705-0.27076 0.48705-0.48705zm19.315-0.65784c0-0.81429-1.2937-0.73563-1.41 0.0857-0.0758 0.5347 0.0105 0.60372 0.66145 0.52917 0.54361-0.0623 0.74858-0.23064 0.74858-0.61492zm2.6155-1.0748c0.15953-0.41571-0.75888-1.0254-1.1658-0.77395-0.14251 0.0881-0.25912 0.38132-0.25912 0.65165 0 0.8202 1.1202 0.91635 1.4249 0.1223zm-21.533 0.0164c0-0.21828-0.17157-0.39687-0.38126-0.39687-0.44202 0-0.74041 0.37763-0.49349 0.62455 0.31622 0.31622 0.87475 0.17084 0.87475-0.22768zm17.117-0.56743c0.0989-0.25775-0.0123-0.56625-0.27289-0.75677-0.24192-0.1769-0.44348-0.4871-0.44791-0.68934-5e-3 -0.24165-0.10604-0.19907-0.29389 0.12419-0.20501 0.35279-0.20434 0.6708 2e-3 1.1245 0.33464 0.73446 0.77341 0.82003 1.0123 0.19744zm3.0748-0.69328c1.7159-1.4551 1.5882-4.0199-0.27297-5.484-2.6197-2.0607-4.8644 2.9372-2.4417 5.4367 1.0891 1.1237 1.4382 1.1297 2.7147 0.0472zm2.0333-0.1945c0-0.14552-0.17859-0.26458-0.39687-0.26458s-0.39688 0.11906-0.39688 0.26458 0.1786 0.26459 0.39688 0.26459 0.39687-0.11907 0.39687-0.26459zm-21.034-0.52554c0-0.47102-0.87273-0.69194-1.2486-0.31607-0.14648 0.14649-0.18213 0.40258-0.0792 0.56911 0.26301 0.42555 1.3278 0.22264 1.3278-0.25304zm1.4115-2.0847c0.11677-0.82533-0.29484-1.1992-1.0983-0.9975-1.3316 0.33421-1.1698 1.8354 0.18365 1.7037 0.63827-0.0621 0.84626-0.2227 0.91467-0.70622zm20.008 0.51182c0.0837-0.13547 0.0312-0.32109-0.11668-0.41249-0.14789-0.0914-0.2689 0.0194-0.2689 0.2463 0 0.46475 0.15877 0.53318 0.38558 0.16619zm-18.38-2.793c0.43314-0.52191 0.15032-1.194-0.50245-1.194-0.65491 0-0.90051 0.38051-0.68463 1.0607 0.19789 0.62348 0.73061 0.6833 1.1871 0.13329zm2.7809-0.13566c0-0.50161-1.1917-0.69098-1.474-0.23422-0.3198 0.51746-0.0107 0.80291 0.77136 0.7124 0.41202-0.0477 0.70262-0.24545 0.70262-0.47818zm14.336-0.84336c-0.0845-0.21107-0.14716-0.14837-0.15985 0.15985-0.0115 0.27892 0.051 0.43519 0.13896 0.34727 0.0879-0.0879 0.0973-0.31612 0.0209-0.50712zm-4.9618-1.4212c0.0367-1.5994 0.54796-1.8815 1.9358-1.0681 0.6653 0.38989 1.2733 0.87473 1.351 1.0774 0.0778 0.20269 0.38542 0.49912 0.68364 0.65872 0.50819 0.27198 0.52307 0.24816 0.23706-0.37957-0.16784-0.36836-0.43488-0.67366-0.59342-0.67843-0.15854-5e-3 -0.73041-0.52602-1.2708-1.1583-1.1402-1.3342-1.0981-1.4198 1.3133-2.6676 2.2577-1.1683 1.8606-1.5352-0.72053-0.66571-2.3346 0.78647-2.3052 0.81499-2.9373-2.8494-0.57959-3.36-1.1097-2.0364-0.67325 1.681 0.21313 1.8153-0.15906 2.33-1.4218 1.9662-1.8494-0.53278-2.3838-0.31094-0.99394 0.41258 1.5307 0.79679 1.5485 1.005 0.18579 2.1715-1.2844 1.0994-1.2356 1.2544 0.21506 0.68454 1.4245-0.55954 1.9143-0.35465 1.9143 0.80081 0 2.0652 0.72772 2.0787 0.77515 0.0144zm-7.1849 0.6175c2.3884-1.4356 1.8237-3.9092-0.8925-3.9092-1.5483 0-2.3812 0.4326-2.8876 1.4998-1.2417 2.6167 1.0282 4.0635 3.7802 2.4094zm-4.8625-1.155c0.21504-0.5604-0.0251-0.90217-0.63401-0.90217-0.59477 0-0.89659 0.40872-0.69321 0.93872 0.19782 0.51552 1.1252 0.48998 1.3272-0.0366zm0.42432-1.6959c0-0.14552-0.11906-0.26458-0.26458-0.26458s-0.26459 0.11906-0.26459 0.26458 0.11907 0.26459 0.26459 0.26459 0.26458-0.11907 0.26458-0.26459zm5.0271-2.3812c0-0.14552-0.11906-0.26458-0.26458-0.26458s-0.26458 0.11906-0.26458 0.26458 0.11906 0.26459 0.26458 0.26459 0.26458-0.11907 0.26458-0.26459zm1.3229 0c0-0.14552-0.11906-0.26458-0.26458-0.26458s-0.26459 0.11906-0.26459 0.26458 0.11907 0.26459 0.26459 0.26459 0.26458-0.11907 0.26458-0.26459zm11.509-0.79375c0.28492-0.46101-0.1374-0.85431-0.54981-0.51203-0.20373 0.16907-0.30516 0.41298-0.22541 0.54201 0.193 0.3123 0.57276 0.29761 0.77522-0.03zm1.5875-0.79375c0.0899-0.14552 0.0932-0.37844 7e-3 -0.51761-0.21764-0.35214-0.93319-0.035-0.93319 0.41363 0 0.42304 0.68156 0.49957 0.92605 0.10398zm2.1829-1.2566c0.15632-0.46951-0.73318-0.75009-1.0015-0.31591-0.12124 0.19616-0.15765 0.45823-0.0809 0.58237 0.19582 0.31685 0.95002 0.13119 1.0824-0.26646zm2.7119-1.9184c0-0.33674-0.17639-0.52916-0.48507-0.52916-0.6242 0-0.83743 0.22239-0.65902 0.68732 0.2246 0.58529 1.1441 0.45818 1.1441-0.15816zm1.69-1.1079c0.18829-0.94141-0.0798-1.3684-0.77366-1.232-0.8954 0.17599-1.1173 0.99381-0.42403 1.5627 0.84607 0.69431 1.0012 0.65146 1.1977-0.33077zm-14.655-0.34727c0-0.45443-0.44041-0.74753-0.79446-0.52872-0.17605 0.10881-0.17159 0.33907 0.0133 0.68448 0.29586 0.55283 0.78118 0.45606 0.78118-0.15576zm-11.245 68.659c-0.0899-0.14552-0.0374-0.26458 0.11668-0.26458 0.15411 0 0.2802 0.11906 0.2802 0.26458s-0.0525 0.26458-0.11668 0.26458c-0.0642 0-0.19026-0.11906-0.2802-0.26458zm12.11 0.0812c0.25743-0.0671 0.61461-0.0627 0.79375 0.01 0.17913 0.0725-0.0315 0.12736-0.46806 0.12197-0.43656-5e-3 -0.58313-0.0647-0.32569-0.13178zm7.4919-0.11754c0.14763-0.23887 1.05-0.17003 1.3208 0.10076 0.0915 0.0915-0.19903 0.1559-0.64553 0.14321-0.4465-0.0127-0.75038-0.12249-0.6753-0.24397z" fill="#252525"/>
   <text x="34.164085" y="166.83159" fill="#ffffff" font-family="sans-serif" font-size="10.583px" style="line-height:1.25" xml:space="preserve"><tspan x="34.164085" y="166.83159" fill="#ffffff" font-family="'Fira Code'" stroke-width=".26458">404</tspan></text>
  </g>
 </g>
</svg>
