<svg width="6.35mm" height="6.35mm" version="1.1" viewBox="0 0 6.35 6.35" xmlns="http://www.w3.org/2000/svg">
 <g transform="translate(-20.953 -50.7)">
  <g transform="translate(3.1572 -1.278)">
   <path d="m17.796 55.163 3.1863 0.0089 1.4128 3.1563-4.5991-3.1e-5z" fill="#00f" fill-opacity=".63404"/>
   <path d="m20.982 55.172 1.3666-3.1858-4.5529-0.0079v3.1848z" fill="#008f4f" fill-opacity=".81508"/>
   <path d="m20.982 55.172 1.3666-3.1858 1.7971-0.0079v6.35h-1.7509z" fill="#8e0000" fill-opacity=".81508"/>
   <g transform="translate(-3.1572 1.278)" fill="#2f306f">
    <path d="m24.777 52.431s0.0047-0.6195 0.05072-0.92479c0.03797-0.25237 0.05771-0.45687 0.28707-0.5688 0.26689-0.13025 0.45594 0.09165 0.52356 0.27718 0.07297 0.20018-0.07292 0.38253-0.23996 0.59244-0.18277 0.22969-0.6214 0.62397-0.6214 0.62397z" fill-opacity=".99163"/>
    <path d="m24.139 53.894s0.0047-0.6195 0.05072-0.92479c0.03797-0.25237 0.05771-0.45687 0.28707-0.5688 0.26689-0.13025 0.45594 0.09165 0.52356 0.27718 0.07297 0.20018-0.07292 0.38253-0.23996 0.59244-0.18277 0.22969-0.6214 0.62397-0.6214 0.62397z"/>
   </g>
   <path d="m20.982 55.172s-0.5657 0.22519-0.86035 0.29558c-0.24355 0.05825-0.4369 0.1157-0.62211-0.05586-0.21552-0.19962-0.08216-0.45744 0.06218-0.589 0.15574-0.14195 0.37474-0.07402 0.62652 0.0033 0.2755 0.08465 0.79376 0.34594 0.79376 0.34594z" fill="#920707" fill-opacity=".99578"/>
   <path d="m19.407 55.16s-0.5657 0.2252-0.86035 0.29558c-0.24355 0.05825-0.4369 0.1157-0.62211-0.05586-0.21552-0.19962-0.08216-0.45744 0.06218-0.589 0.15574-0.14195 0.37474-0.07402 0.62652 0.0033 0.2755 0.08465 0.79376 0.34594 0.79376 0.34594z" fill="#920707" fill-opacity=".99578"/>
   <path d="m20.982 55.172s0.43435 0.4267 0.61767 0.66788c0.15159 0.19932 0.28218 0.35304 0.19997 0.59174-0.09566 0.27775-0.38537 0.25979-0.564 0.18082-0.19274-0.0852-0.21897-0.313-0.2498-0.57458-0.03374-0.28623-0.0038-0.86587-0.0038-0.86587z" fill="#069846"/>
   <path d="m21.628 56.611s0.43435 0.4267 0.61767 0.66788c0.15159 0.19932 0.28218 0.35304 0.19997 0.59174-0.09566 0.27775-0.38537 0.2598-0.564 0.18082-0.19274-0.0852-0.21897-0.31299-0.2498-0.57457-0.03374-0.28622-0.0038-0.86587-0.0038-0.86587z" fill="#069846" fill-opacity=".99713"/>
  </g>
 </g>
</svg>
