<?xml version="1.0" encoding="UTF-8" standalone="no"?>
<svg
   width="20.482227mm"
   height="27.931166mm"
   version="1.1"
   viewBox="0 0 20.482227 27.931165"
   id="svg848"
   sodipodi:docname="splash_logo.svg"
   inkscape:version="1.1.2 (0a00cf5339, 2022-02-04)"
   xmlns:inkscape="http://www.inkscape.org/namespaces/inkscape"
   xmlns:sodipodi="http://sodipodi.sourceforge.net/DTD/sodipodi-0.dtd"
   xmlns="http://www.w3.org/2000/svg"
   xmlns:svg="http://www.w3.org/2000/svg">
  <defs
     id="defs852" />
  <sodipodi:namedview
     id="namedview850"
     pagecolor="#ffffff"
     bordercolor="#666666"
     borderopacity="1.0"
     inkscape:pageshadow="2"
     inkscape:pageopacity="0.0"
     inkscape:pagecheckerboard="0"
     inkscape:document-units="mm"
     showgrid="false"
     fit-margin-top="0"
     fit-margin-left="0"
     fit-margin-right="0"
     fit-margin-bottom="0"
     inkscape:zoom="4.3958334"
     inkscape:cx="21.838862"
     inkscape:cy="68.018956"
     inkscape:window-width="1920"
     inkscape:window-height="1053"
     inkscape:window-x="0"
     inkscape:window-y="0"
     inkscape:window-maximized="1"
     inkscape:current-layer="g24902" />
  <g
     id="g24902"
     transform="translate(12.365714,1.8439627)">
    <g
       id="g26898"
       transform="matrix(0.38142216,0,0,0.38142216,89.225614,-28.893829)"
       style="opacity:1">
      <path
         style="fill:#abaafb;stroke-width:0.264583"
         d="m -266.256,131.59749 c 0,-12.53979 0,-12.53979 1.10272,-12.50157 0.98288,0.0341 1.12838,0.12449 1.3388,0.83198 0.54633,1.83685 2.76509,5.82863 3.73132,6.71302 0.76119,0.69672 0.98389,1.0824 0.89462,1.54938 -0.14285,0.74729 0.27918,2.04334 1.00233,3.07816 0.99401,1.4224 2.56166,3.05884 3.0913,3.22694 0.39535,0.12548 0.4859,0.3118 0.3585,0.73769 -0.43829,1.46521 -0.46371,6.52503 -0.0381,7.58869 0.23363,0.58389 0.42477,1.11874 0.42477,1.18856 0,0.0698 -2.6789,0.12693 -5.95312,0.12693 -5.95313,0 -5.95313,0 -5.95313,-12.53978 z m 26.45833,12.30796 c 0,-0.1275 0.62508,-0.29593 1.38906,-0.37428 7.31658,-0.75039 9.13633,-1.23658 10.09294,-2.69654 0.56894,-0.86831 0.5345,-1.3496 -0.14518,-2.02928 -0.54869,-0.5487 -0.55167,-0.58241 -0.0817,-0.92605 0.57806,-0.42268 1.08624,-0.45831 1.31261,-0.092 0.0899,0.14553 0.36506,0.26459 0.61138,0.26459 0.76951,0 1.68966,2.09468 1.48429,3.37894 -0.41218,2.57763 -0.79962,2.70647 -8.13854,2.70647 -3.58866,0 -6.52484,-0.10432 -6.52484,-0.23182 z m 14.92369,-0.0736 c -0.11696,-0.18926 -0.0726,-0.23364 0.11668,-0.11667 0.168,0.10383 0.30546,0.0627 0.30546,-0.0914 0,-0.36802 1.25301,-0.35496 3.37016,0.0351 1.52878,0.28168 1.73784,0.26804 1.95941,-0.12787 0.24899,-0.44493 1.28502,-0.11813 1.28502,0.40534 0,0.34196 -6.82343,0.24061 -7.03673,-0.10452 z m 3.74088,-2.85102 c -0.18112,-0.29306 1.1024,-0.71265 1.36789,-0.44717 0.20986,0.20986 0.08,0.32105 -0.62946,0.53884 -0.31518,0.0968 -0.64747,0.0555 -0.73843,-0.0917 z m -2.42732,-1.20396 c -0.0871,-0.22697 0.36146,-1.0725 1.06664,-2.01059 1.25034,-1.66332 1.44927,-2.28664 0.90385,-2.83205 -0.4021,-0.40211 -0.10707,-0.70282 0.47166,-0.48074 0.85106,0.32659 0.23184,3.96019 -0.89503,5.25205 -0.49307,0.56527 -1.34255,0.60443 -1.54712,0.0713 z m -11.37907,-3.18018 c -0.30063,-0.78344 0.11623,-1.19062 1.21893,-1.19062 1.17621,0 1.26252,0.13176 0.65476,0.99946 -0.47137,0.67298 -1.64293,0.79251 -1.87369,0.19116 z m 8.91406,-0.59531 c -0.34277,-1.23428 -0.34432,-1.38906 -0.0139,-1.38906 0.14553,0 0.26459,0.23109 0.26459,0.51355 0,0.28245 0.11906,0.58713 0.26458,0.67707 0.33715,0.20837 0.34741,1.19063 0.0124,1.19063 -0.13868,0 -0.37614,-0.44649 -0.52769,-0.99219 z m -11.82225,-1.50559 c -1.07235,-0.46667 -1.14917,-0.61915 -0.97313,-1.9316 0.14731,-1.09825 0.14731,-1.09825 2.54747,-1.66174 2.97341,-0.69807 3.884,-1.14495 3.884,-1.9061 0,-0.44006 0.073,-0.50234 0.31033,-0.26497 0.57119,0.5712 -0.63162,2.43376 -3.21498,4.97841 -1.30543,1.28587 -1.36378,1.30383 -2.55369,0.786 z m -12.70193,-1.33792 c -0.24418,-0.6363 0.3316,-1.12047 0.90349,-0.75973 0.64263,0.40536 0.56611,1.00788 -0.14075,1.10825 -0.36625,0.052 -0.66067,-0.0825 -0.76274,-0.34852 z m 2.54986,-1.41607 c 0,-0.31299 -0.0983,-0.56907 -0.21839,-0.56907 -0.29578,0 -2.95661,-3.29989 -2.95661,-3.6667 0,-0.44744 1.78326,-3.13404 2.34063,-3.52633 0.27163,-0.19118 0.5705,-0.59027 0.66416,-0.88686 0.14226,-0.4505 1.39822,-1.96928 3.16423,-3.82636 0.20757,-0.21828 1.60574,-1.52797 3.10703,-2.91042 5.54463,-5.1057 6.48189,-6.43359 6.17484,-8.74831 -0.22422,-1.69019 -1.95745,-2.90479 -2.6186,-1.83502 -0.31284,0.50618 -0.66142,0.25998 -0.65558,-0.46303 0.0265,-3.27863 5.40874,-3.65287 7.41804,-0.51579 0.48462,0.75663 0.98082,1.4446 1.10267,1.52881 0.12185,0.0842 0.0392,0.85338 -0.18377,1.70924 -0.22293,0.85586 -0.40532,1.8737 -0.40532,2.26187 0,0.38818 -0.17859,0.85399 -0.39688,1.03515 -0.21828,0.18115 -0.39687,0.5655 -0.39687,0.8541 0,0.28859 -0.26789,0.85432 -0.59531,1.25717 -0.32742,0.40285 -0.83344,1.12497 -1.12448,1.60471 -0.29104,0.47974 -0.76729,1.25574 -1.05834,1.72444 -1.28308,2.0663 -2.22675,3.91031 -2.39643,4.68286 -0.10091,0.45946 -0.54186,1.49507 -0.97988,2.30136 -0.43803,0.80629 -0.78865,1.77915 -0.77916,2.1619 0.0109,0.43967 -0.26819,0.96938 -0.75791,1.43857 -0.42634,0.40845 -0.77721,0.86919 -0.77973,1.02387 -0.002,0.15467 -0.29268,0.55441 -0.64482,0.88829 -0.35213,0.33389 -0.77255,1.00797 -0.93427,1.49796 -0.3645,1.10446 -0.57358,1.18435 -3.62411,1.38473 -2.39657,0.15743 -2.46514,0.1461 -2.46514,-0.40714 z m -8.83494,-2.7644 c -0.34475,-0.25209 -0.43613,-0.5293 -0.30778,-0.93369 0.33691,-1.06151 1.90083,-0.44424 1.68705,0.66587 -0.11641,0.60445 -0.75052,0.72758 -1.37927,0.26782 z m 26.8266,-0.20239 c 0,-0.12733 -0.16293,-0.16898 -0.36207,-0.0926 -0.29787,0.1143 -0.3096,-0.0309 -0.0661,-0.8188 0.19957,-0.64588 0.32769,-0.80275 0.39348,-0.48177 0.0537,0.26179 0.32324,0.67171 0.59908,0.91094 0.49109,0.42593 0.49044,0.43788 -0.0314,0.57434 -0.29311,0.0767 -0.53293,0.0352 -0.53293,-0.0921 z m -6.85003,-2.19739 c -0.22655,-0.27297 -0.21383,-0.43348 0.0518,-0.65393 0.37255,-0.30919 3.05803,-0.96062 3.23413,-0.78452 0.21114,0.21115 -0.20929,1.2595 -0.44636,1.11298 -0.13537,-0.0837 -0.53437,0.0367 -0.88665,0.26756 -0.78671,0.51547 -1.55428,0.53823 -1.95292,0.0579 z m 1.15061,-3.88916 c -0.23969,-0.38783 -0.16359,-0.42242 1.26765,-0.57615 1.51742,-0.16299 1.64164,0.1301 0.23389,0.55187 -1.2505,0.37466 -1.28465,0.37521 -1.50154,0.0243 z m -26.07434,-7.02249 c -0.40581,-0.48898 0.25021,-1.16199 1.13267,-1.16199 0.58647,0 0.60216,0.23501 0.0667,0.99946 -0.48987,0.69938 -0.72716,0.73153 -1.19939,0.16253 z m 1.0821,-2.57273 c -0.50933,-0.18105 -1.62185,-0.49519 -2.47228,-0.69808 -1.96308,-0.46834 -2.0462,-0.67682 -2.05187,-5.14703 -0.002,-1.90288 -0.0139,-3.6979 -0.0254,-3.98895 -0.0116,-0.29104 0.12207,-2.3151 0.29698,-4.497913 0.38397,-4.791958 0.22433,-6.638443 -0.66322,-7.671358 -0.57804,-0.6727 -0.64044,-0.984707 -0.64044,-3.202096 0,-2.611757 0.16844,-3.036541 0.87625,-2.209867 0.24282,0.283587 0.59708,0.515613 0.78725,0.515613 0.46959,0 2.12569,1.799399 2.55688,2.778125 0.6629,1.504641 1.33587,3.433125 1.3375,3.832722 9e-4,0.220337 0.17949,0.741643 0.39687,1.15846 0.21739,0.416817 0.39525,1.032245 0.39525,1.367621 0,0.335375 0.1684,0.946843 0.37422,1.358818 0.69921,1.399566 1.46033,3.12625 2.02099,4.584845 0.30751,0.8 0.6862,1.60768 0.84153,1.79484 0.29825,0.35938 0.38787,0.95986 0.56613,3.79356 0.0606,0.96321 0.25303,2.01822 0.42763,2.34447 0.35431,0.66203 -0.6406,1.92042 -2.74884,3.47683 -1.1749,0.86737 -1.05016,0.84493 -2.27541,0.40939 z m 31.59979,-1.84356 c -1.56836,-0.87565 0.70522,-1.29872 2.92137,-0.5436 1.02321,0.34864 1.37988,0.37176 1.78946,0.11597 0.43991,-0.27473 0.49842,-0.25234 0.41779,0.15988 -0.10114,0.51707 -4.29035,0.73578 -5.12862,0.26775 z m -22.73966,-2.72099 c -1.12437,-1.22753 -1.12323,-1.12971 -0.0298,-2.56221 1.78279,-2.33558 2.72153,-4.33893 2.32997,-4.97232 -0.41976,-0.67898 -0.21821,-0.9839 0.34267,-0.51841 0.22179,0.18408 0.40326,0.66768 0.40326,1.07467 0,0.40699 0.17942,1.44032 0.39871,2.29628 0.29585,1.15483 0.33581,1.89295 0.1549,2.86134 -0.1341,0.71777 -0.19066,1.39104 -0.12569,1.49616 0.15709,0.25418 -0.90659,0.92733 -1.82038,1.15202 -0.62007,0.15247 -0.87105,0.0269 -1.65365,-0.82753 z m 5.75624,0.11291 c -0.47552,-0.47552 -0.41941,-0.69404 0.46488,-1.81054 0.43656,-0.55121 0.79375,-1.13389 0.79375,-1.29485 0,-0.31845 0.59902,-0.39918 0.87965,-0.11856 0.0958,0.0958 0.0398,0.3359 -0.12432,0.53366 -0.16412,0.19775 -0.31192,0.92308 -0.32843,1.61184 -0.032,1.33301 -0.8851,1.87887 -1.68553,1.07845 z m 2.85454,0.10769 c 0.0414,-0.97623 1.3145,-1.42467 1.3145,-0.46302 0,0.52917 -0.13229,0.66146 -0.66146,0.66146 -0.3638,0 -0.65767,-0.0893 -0.65304,-0.19844 z m 17.45409,-0.99219 c 0,-0.42702 0.24233,-0.49034 0.9044,-0.23627 0.64412,0.24717 0.49602,0.63315 -0.24295,0.63315 -0.41157,0 -0.66145,-0.14993 -0.66145,-0.39688 z m -1.7198,-1.14087 c -2.07805,-0.41901 -1.36383,-2.00936 1.89682,-4.22363 2.64009,-1.79285 3.4128,-3.257741 2.17554,-4.124352 -0.7382,-0.517059 -0.42004,-0.962189 0.68774,-0.962189 0.6826,0 1.02078,0.180271 1.43838,0.766744 0.87701,1.231649 0.51032,2.218037 -1.67518,4.506157 -3.8654,4.04687 -3.97786,4.14725 -4.5233,4.03727 z m -27.64895,-4.95769 c 0,-0.53191 0.65306,-1.789677 1.13837,-2.192449 0.31828,-0.264147 0.40243,-0.111636 0.52155,0.945179 0.15212,1.34955 -0.039,1.64626 -1.06461,1.65324 -0.363,0.002 -0.59531,-0.15595 -0.59531,-0.40597 z m 16.72318,-0.91799 c -1.27323,-0.57004 -1.45115,-1.054921 -0.38516,-1.049629 1.23064,0.0061 1.91823,0.294798 1.91823,0.805379 0,0.73699 -0.31898,0.78781 -1.53307,0.24425 z m 5.68524,0.0712 c -0.0618,-0.10914 -0.43838,-1.188419 -0.8368,-2.398396 -0.8912,-2.706468 -1.70443,-3.77616 -2.50132,-3.290146 -0.72076,0.439573 -0.81405,0.420076 -0.81405,-0.17013 0,-0.545373 0.48986,-0.822058 1.45544,-0.822058 1.57518,0 5.48243,5.455137 4.63694,6.4739 -0.34445,0.41503 -1.73814,0.5636 -1.94021,0.20683 z m 3.52074,-1.688564 c 0,-0.314973 1.07555,-2.16754 1.17829,-2.029521 0.3103,0.416883 -0.24545,2.329022 -0.67691,2.329022 -0.27576,0 -0.50138,-0.134774 -0.50138,-0.299501 z m 9.85408,-0.295812 c 0.11049,-0.336505 1.069,-1.027467 2.55215,-1.839777 0.63664,-0.348684 0.82294,-0.629653 0.82294,-1.241156 0,-1.043617 0.44966,-1.285639 0.83152,-0.44755 0.37774,0.829045 0.15364,1.135496 -1.98511,2.714516 -1.52874,1.12866 -2.4337,1.460241 -2.2215,0.813967 z m -2.12013,-3.297319 c -0.4973,-1.328907 -0.57614,-1.663618 -0.39188,-1.663618 0.35506,0 1.4067,1.433388 1.33241,1.816073 -0.13404,0.690502 -0.65679,0.605766 -0.94053,-0.152455 z m -39.81903,-8.436892 c -0.29036,-0.290362 0.36998,-1.335332 1.12606,-1.781958 1.09765,-0.6484 1.12522,-0.562127 0.23966,0.750022 -0.7839,1.161525 -1.04149,1.356159 -1.36572,1.031936 z m -3.51165,-3.297516 c -0.0956,-0.154663 -0.23928,-1.469582 -0.31931,-2.922041 -0.12171,-2.208704 -0.22571,-2.683752 -0.63557,-2.903104 -0.49398,-0.264366 -0.73426,-2.095733 -0.27497,-2.095733 0.52525,0 1.63013,1.560203 1.87368,2.645833 0.14691,0.654844 0.45141,1.71161 0.67667,2.34837 0.49069,1.387051 0.52479,2.45766 0.0921,2.89038 -0.39307,0.393072 -1.17957,0.41328 -1.41256,0.03629 z m -0.18623,-8.979211 c -0.1016,-0.218282 -0.21802,-0.992188 -0.2587,-1.719792 -0.061,-1.091286 -0.15503,-1.309304 -0.53698,-1.245172 -0.32023,0.05377 -0.46302,-0.09583 -0.46302,-0.48507 0,-0.698064 0.46785,-0.569251 1.12388,0.309438 0.37507,0.502361 0.47347,1.009961 0.40709,2.099984 -0.0492,0.808101 -0.16842,1.26372 -0.27227,1.040612 z"
         id="path26754" />
      <path
         style="fill:#fba3a5;stroke-width:0.264583"
         d="m -254.34262,142.87866 c -0.26436,-2.6507 -0.14587,-7.11901 0.19983,-7.53553 0.18659,-0.22481 0.90096,-0.49237 1.5875,-0.59456 0.68653,-0.10221 1.36731,-0.27822 1.51283,-0.39115 0.14552,-0.11292 0.69576,-0.2829 1.22275,-0.37772 0.52699,-0.0948 1.22982,-0.408 1.56184,-0.69595 0.41195,-0.35729 0.98995,-0.5242 1.81995,-0.52556 0.66896,-0.001 1.98786,-0.12718 2.93089,-0.28018 1.29566,-0.21021 1.7401,-0.20164 1.819,0.0351 0.19192,0.57574 1.0754,1.29011 1.81748,1.46959 0.40389,0.0977 1.03199,0.38274 1.3958,0.63347 0.3638,0.25073 0.93994,0.54241 1.28032,0.64818 0.34037,0.10577 1.03883,0.65717 1.55214,1.22534 0.5133,0.56816 1.02183,1.03303 1.13006,1.03303 0.10824,0 0.6496,0.42705 1.20304,0.94901 1.01226,0.95469 1.70439,1.32669 3.16881,1.70318 0.79375,0.20406 0.79375,0.20406 -0.18282,0.23114 -0.53712,0.0149 -1.05016,-0.092 -1.1401,-0.2375 -0.31796,-0.51448 -0.5863,-0.2553 -0.45372,0.43824 0.0944,0.49362 -0.015,0.81244 -0.36742,1.07111 -0.44609,0.32742 -0.36966,0.34837 0.68885,0.18879 1.49381,-0.22519 3.00865,-1.29394 2.82569,-1.99357 -0.0717,-0.27408 -0.0224,-0.49832 0.1095,-0.49832 0.46536,0 0.23199,0.9895 -0.39222,1.66303 -0.76501,0.82547 -1.92093,1.1589 -5.20526,1.50151 -4.18639,0.4367 -6.06565,0.87853 -6.07301,1.42783 -0.002,0.16633 -0.11947,0.12383 -0.26053,-0.0945 -0.17099,-0.26458 -0.25783,-0.28663 -0.26053,-0.0661 -0.003,0.25579 -1.51776,0.33031 -6.68478,0.32889 -6.68073,-0.002 -6.68073,-0.002 -6.80589,-1.25677 z m 19.43446,-8.27494 c -0.10271,-0.16617 -0.0593,-0.42952 0.0963,-0.58521 0.32873,-0.32873 1.90559,0.0389 1.9794,0.46147 0.0655,0.37495 -1.84991,0.48914 -2.07574,0.12374 z m -15.00982,-2.81967 c -0.57065,-0.14912 -0.58951,-0.4416 -0.057,-0.88357 0.33696,-0.27966 0.49455,-0.24203 0.92604,0.22112 0.7843,0.84184 0.53743,1.03001 -0.86909,0.66245 z m -8.07071,-0.91655 c -0.35657,-0.35657 -0.42313,-0.99586 -0.17185,-1.65067 0.14904,-0.38841 2.22399,0.45153 2.2172,0.89752 -0.0109,0.7192 -1.52266,1.27584 -2.04535,0.75315 z m 18.65404,-0.77626 c -1.14997,-2.02048 -0.0401,-3.39124 2.31853,-2.86341 0.82791,0.18528 1.5598,0.47891 1.62642,0.6525 0.0666,0.1736 0.59035,0.52723 1.16386,0.78584 1.65493,0.74627 1.36125,0.96345 -2.47939,1.83359 -2.27622,0.5157 -2.08662,0.54516 -2.62942,-0.40852 z m -16.47441,-2.95837 c -0.25448,-0.14242 -1.06819,-0.18723 -1.80822,-0.0996 -1.37097,0.16237 -2.81789,-0.64185 -2.81789,-1.56624 0,-0.17324 -0.15993,-0.44771 -0.3554,-0.60994 -0.51264,-0.42544 -2.19052,-3.71883 -2.41039,-4.73116 -0.17315,-0.79723 -0.0469,-1.01525 1.72239,-2.97472 1.05007,-1.16294 1.92277,-2.34021 1.93933,-2.61616 0.0166,-0.27594 0.63947,-0.96138 1.38425,-1.52319 0.74477,-0.56181 1.66851,-1.39705 2.05276,-1.85608 0.66889,-0.79909 0.76359,-0.82871 2.22539,-0.69616 1.20378,0.10915 1.60197,0.0478 1.88224,-0.28988 0.21475,-0.25875 0.75807,-0.42832 1.37243,-0.42832 0.55933,0 1.432,-0.19791 1.93927,-0.43982 0.75612,-0.36056 0.99582,-0.3788 1.33028,-0.10123 1.16901,0.97019 7.31236,0.22589 9.27474,-1.12369 0.79375,-0.54589 0.79375,-0.54589 0.17316,0.14037 -0.63717,0.70459 -2.68979,1.52437 -3.8168,1.52437 -1.04869,0 -1.04739,0.32493 0.004,0.91257 1.18068,0.66011 1.52687,2.17519 0.70463,3.08376 -1.25035,1.38162 0.12923,0.61657 1.76254,-0.97742 1.91879,-1.8726 2.57035,-2.8152 2.9098,-4.20953 0.15724,-0.64588 0.19828,-0.68088 0.22032,-0.1879 0.0651,1.45657 -4.21848,6.58827 -6.87187,8.23244 -0.37468,0.23217 -1.07696,0.87469 -1.56063,1.42783 -0.48366,0.55314 -1.2189,1.18127 -1.63386,1.39586 -0.41496,0.21458 -0.75447,0.60906 -0.75447,0.87661 0,0.26755 -0.59532,1.09123 -1.32292,1.8304 -0.7276,0.73918 -1.32712,1.43995 -1.33226,1.55727 -0.005,0.11733 -0.48037,0.98695 -1.05608,1.9325 -1.04673,1.71918 -1.04673,1.71918 -2.8702,1.74758 -1.00291,0.0156 -2.03169,-0.0881 -2.28618,-0.23053 z m 18.2351,-2.14827 c -0.59088,-1.53981 0.58627,-2.33902 2.19113,-1.48765 1.33133,0.70627 1.34858,1.08781 0.0633,1.39989 -0.49844,0.12103 -1.17267,0.28652 -1.49828,0.36775 -0.39937,0.0996 -0.64543,0.008 -0.75614,-0.27999 z m 1.21587,-4.00667 c 0,-0.93013 0.6093,-1.06996 1.56935,-0.36016 1.10213,0.81484 1.02304,1.02992 -0.37872,1.02992 -1.09755,0 -1.19063,-0.0524 -1.19063,-0.66976 z m 1.98438,-1.90016 c -0.777,-0.18689 -1.08323,-0.55373 -0.74478,-0.89218 0.34938,-0.34938 2.04165,0.4303 1.79615,0.82753 -0.16444,0.26606 -0.20393,0.26849 -1.05137,0.0647 z m 0.68905,-2.16993 c -0.44331,-0.2807 -0.19859,-1.08099 0.33055,-1.08099 0.20611,0 0.56978,0.29766 0.80815,0.66146 0.4703,0.71777 -0.2491,0.98282 -1.1387,0.41953 z m 1.62605,-1.79688 c -0.62395,-0.12018 -0.69978,-0.2915 -0.43471,-0.98226 0.22605,-0.58908 0.7967,-0.51991 1.26857,0.15377 0.37784,0.53945 0.34829,1.05881 -0.0557,0.97919 -0.10055,-0.0198 -0.45071,-0.0876 -0.77813,-0.1507 z m -30.28806,-0.75463 c -0.24056,-0.24057 0.0956,-1.17566 0.421,-1.17126 0.78732,0.0106 1.10844,0.52387 0.58003,0.92702 -0.55358,0.42236 -0.77008,0.47519 -1.00103,0.24424 z m -3.90933,-8.20882 c 0,-7.038665 0.3501,-8.237971 0.47046,-1.61162 0.0428,2.35373 0.10322,5.04298 0.13437,5.97611 0.0389,1.16404 -0.0472,1.73157 -0.2741,1.80799 -0.25843,0.087 -0.33073,-1.26238 -0.33073,-6.17248 z m 18.5694,0.48507 c 0.0685,-0.59498 0.2642,-0.77219 1.07385,-0.9722 1.28248,-0.31682 1.44276,-0.11505 0.7032,0.88526 -0.80919,1.0945 -1.89912,1.14782 -1.77705,0.0869 z m -6.79545,-0.11255 c -2.44749,-1.28468 -1.80264,-3.64846 1.12197,-4.11269 0.54709,-0.0868 1.51059,-0.37719 2.14112,-0.64523 1.76894,-0.75198 1.79928,-0.57815 0.32778,1.87852 -1.9039,3.17856 -2.34581,3.53292 -3.59087,2.8794 z m -2.51514,-5.37948 c -0.66566,-0.80208 -0.44986,-1.844965 0.39848,-1.925634 0.43656,-0.04151 1.06146,-0.210365 1.38866,-0.375224 0.94421,-0.475739 1.0015,-0.05096 0.17307,1.283178 -0.79338,1.27769 -1.45803,1.62276 -1.96021,1.01768 z m -8.61137,-5.422031 c 0.011,-3.21519 0.0636,-3.808815 0.24364,-2.748177 0.13266,0.781616 0.12674,2.51328 -0.014,4.101042 -0.24364,2.748177 -0.24364,2.748177 -0.22962,-1.352865 z m 7.20186,2.20486 c -0.50469,-0.504695 -0.12813,-1.08512 0.80191,-1.236046 1.22437,-0.198686 1.30973,-0.1105 0.70135,0.724567 -0.4727,0.648843 -1.13914,0.875596 -1.50326,0.511479 z m -0.92239,-2.535589 c 0.0543,-0.382577 0.29728,-0.625525 0.67986,-0.67986 0.72049,-0.102328 0.76664,0.244356 0.11145,0.83729 -0.65884,0.596249 -0.89177,0.549907 -0.79131,-0.15743 z m -0.70921,-2.050521 c -0.26298,-0.425524 0.11249,-0.79375 0.80937,-0.79375 0.7077,0 0.81871,0.250465 0.32834,0.740833 -0.38642,0.386422 -0.91636,0.41107 -1.13771,0.05292 z m -0.54936,-1.941592 c -0.23154,-0.603388 0.0897,-0.968825 0.85161,-0.968825 0.77785,0 0.72715,0.440452 -0.11506,0.999657 -0.50972,0.338442 -0.59623,0.33482 -0.73655,-0.03083 z"
         id="path26750" />
      <path
         style="fill:#fc9899;stroke-width:0.264583"
         d="m -226.43192,143.86574 c 0.0923,-0.14934 0.56788,-0.24459 1.05685,-0.21166 1.15699,0.0779 0.90652,0.48319 -0.29862,0.48319 -0.56578,0 -0.86076,-0.10563 -0.75823,-0.27153 z m 5.68425,-0.22554 c 0,-0.29142 -1.14984,-0.7513 -2.43797,-0.97507 -1.36748,-0.23754 -1.71626,-0.72363 -1.01932,-1.42057 0.70977,-0.70977 1.98592,-0.71599 2.47895,-0.0121 0.20603,0.29414 0.81289,1.00851 1.34859,1.5875 0.96975,1.04811 0.97107,1.05269 0.30187,1.05269 -0.36966,0 -0.67212,-0.10462 -0.67212,-0.23248 z m -11.53677,-1.96233 c 0.35242,-0.25867 0.46178,-0.57749 0.36742,-1.07111 -0.13258,-0.69354 0.13576,-0.95272 0.45372,-0.43824 0.25642,0.41488 1.90158,0.30959 2.36236,-0.15119 0.36616,-0.36617 0.41577,-0.36778 0.41577,-0.0135 0,0.63716 -1.60821,1.66649 -2.91042,1.8628 -1.05851,0.15957 -1.13494,0.13863 -0.68885,-0.1888 z m 7.12768,-2.98241 c -0.27062,-0.70522 0.51602,-1.75318 1.69552,-2.25878 0.61933,-0.26548 1.12607,-0.60598 1.12607,-0.75667 0,-0.1507 0.11906,-0.27399 0.26458,-0.27399 0.55899,0 0.21779,0.7898 -0.95844,2.21856 -1.24534,1.51271 -1.8428,1.8134 -2.12773,1.07088 z m -2.08166,-1.99316 c -0.097,-0.30569 -0.0494,-0.68278 0.10579,-0.83799 0.27306,-0.27306 0.34877,-0.16027 0.7135,1.06307 0.17217,0.57748 -0.63494,0.35575 -0.81929,-0.22508 z m -14.14675,-22.43055 c 0,-0.1277 0.18449,-0.3853 0.40997,-0.57243 0.81847,-0.67927 0.39687,-2.40797 -0.74267,-3.04521 -1.06677,-0.59655 -1.05099,-0.91034 0.0461,-0.91652 2.60513,-0.0147 5.13379,-2.18691 3.93788,-3.38282 -0.24694,-0.24695 -0.22175,-0.3175 0.11339,-0.3175 1.26198,0 1.67371,2.13835 0.75344,3.91315 -0.7675,1.48016 -4.51808,5.06742 -4.51808,4.32133 z m 11.03021,-1.51511 c -0.91674,-0.49697 -0.86784,-1.33041 0.0718,-1.22444 0.82271,0.0928 1.33336,0.534 1.33336,1.15205 0,0.5948 -0.40322,0.61557 -1.4052,0.0724 z m 4.49745,-2.51653 c -0.2638,-0.15344 -1.20533,-0.38155 -2.09228,-0.50692 -1.67364,-0.23657 -2.04739,-0.51063 -2.05425,-1.50631 -0.0111,-1.60677 2.90922,-1.52291 3.72367,0.10693 0.23124,0.46273 0.62094,1.14734 0.866,1.52135 0.47335,0.72243 0.33848,0.83959 -0.44314,0.38495 z m -4.61652,-5.44828 c -0.90908,-0.17483 -1.39501,-1.33291 -0.97711,-2.32866 0.70347,-1.67613 2.36744,-2.500763 5.05943,-2.507333 1.88633,-0.0046 2.46904,-0.172022 2.46904,-0.709366 0,-0.211299 0.11386,-0.313812 0.25303,-0.227801 0.65777,0.406524 -0.33515,1.64337 -2.48809,3.09933 -0.88077,0.59563 -1.93749,1.48301 -2.34827,1.97195 -0.41077,0.48894 -0.88702,0.87277 -1.05833,0.85295 -0.1713,-0.0198 -0.58067,-0.0878 -0.9097,-0.15107 z m -8.52989,-2.45873 c -1.42698,-1.42697 -0.17314,-1.71546 1.55906,-0.35871 0.15649,0.12257 -0.5311,0.88788 -0.79771,0.88788 -0.1277,0 -0.47031,-0.23813 -0.76135,-0.52917 z m 3.52061,-0.42909 c -0.62133,-0.2641 -0.89752,-1.76205 -0.58149,-3.153766 0.16385,-0.721563 0.30478,-1.698886 0.31319,-2.171829 0.0323,-1.816997 0.90363,-0.645927 1.79284,2.409547 0.74434,2.557648 0.1785,3.639948 -1.52454,2.916048 z m -30.57455,-1.68757 c -0.28279,-0.979759 -0.24367,-9.58437 0.0428,-9.407341 0.1325,0.08189 0.31366,1.130715 0.40257,2.330719 0.1916,2.585993 -0.15443,8.084512 -0.44534,7.076622 z m 46.03779,0.34678 c -0.25466,-0.0666 -0.46302,-0.29877 -0.46302,-0.51605 0,-0.578905 1.42543,-0.360795 1.53849,0.23541 0.0869,0.45802 -0.1551,0.52116 -1.07547,0.28064 z m -10.33591,-2.034334 c -0.16034,-0.417843 0.28953,-0.958284 0.79768,-0.958284 0.43281,0 0.42523,0.267645 -0.0244,0.859896 -0.42383,0.55834 -0.58877,0.579324 -0.77332,0.09839 z m 9.76178,-0.479174 c -0.80884,-1.154779 0.0519,-1.873025 2.55851,-2.134893 1.49873,-0.156575 1.72881,0.337724 0.41124,0.88348 -0.46505,0.192628 -1.22942,0.68729 -1.69862,1.099249 -0.85308,0.749017 -0.85308,0.749017 -1.27113,0.152164 z m -2.2387,-1.631857 c -0.29501,-0.35547 -0.12895,-2.022253 0.20148,-2.022253 0.23182,0 0.81232,1.923802 0.65655,2.175841 -0.19045,0.308163 -0.52443,0.248383 -0.85803,-0.153588 z m 8.48725,-1.521891 c 0.0666,-0.202438 0.52857,-0.406323 1.02669,-0.453081 1.06792,-0.10024 0.79976,0.339831 -0.3856,0.632796 -0.588,0.145325 -0.73445,0.104267 -0.64109,-0.179715 z m -47.06242,-6.215606 c -0.19997,-0.521106 0.33704,-0.889905 1.30363,-0.895287 0.90211,-0.005 0.93057,0.331267 0.0754,0.89156 -0.8223,0.538791 -1.1734,0.53974 -1.37908,0.0037 z m -1.97125,-2.395194 c -1.1967,-1.441932 0.86972,-2.887826 3.19908,-2.238433 0.64994,0.181193 0.64913,0.183368 -0.28118,0.758332 -0.51314,0.31714 -1.09446,0.878344 -1.29183,1.24712 -0.41191,0.769674 -1.09896,0.868112 -1.62607,0.232981 z m -2.86827,-4.708624 c -0.01,-4.696097 0.38194,-4.859313 0.61456,-0.255927 0.12993,2.57114 0.0864,3.296178 -0.2223,3.704166 -0.34101,0.450678 -0.38478,0.06591 -0.39226,-3.448239 z m 0.0345,-7.686146 c 0.0977,-2.579003 0.48627,-2.579003 0.48627,0 0,1.222565 -0.10777,1.984375 -0.28072,1.984375 -0.17963,0 -0.25365,-0.71458 -0.20555,-1.984375 z"
         id="path26748" />
      <path
         style="fill:#a1eb9f;stroke-width:0.264583"
         d="m -236.17451,135.50141 c -0.27585,-0.27585 0.0735,-0.62456 0.62579,-0.62456 0.28245,0 0.51355,0.1786 0.51355,0.39688 0,0.39244 -0.81226,0.55476 -1.13934,0.22768 z m -18.83656,-1.41814 c -1.50025,-1.65777 -1.3071,-4.19848 0.40258,-5.29559 2.68718,-1.72436 3.5977,-1.28966 3.88953,1.85693 0.2249,2.42489 -2.92543,4.94881 -4.29211,3.43866 z m 13.55975,-1.6914 c -0.62207,-0.47222 -0.58454,-0.7482 0.20228,-1.48737 1.2262,-1.15195 2.94634,0.11314 1.83043,1.34621 -0.53248,0.58838 -1.36721,0.64635 -2.03271,0.14116 z m 2.97657,-6.04266 c 0,-0.46579 0.53156,-0.99736 0.99736,-0.99736 0.22444,0 0.33018,0.22659 0.27781,0.59532 -0.0944,0.66489 -1.27517,1.03717 -1.27517,0.40204 z m -26.95102,-8.01871 c -1.05007,-0.88358 -1.26351,-4.55578 -0.33169,-5.70654 0.93058,-1.14921 3.47388,1.0987 3.46585,3.06333 -0.0103,2.51452 -1.64682,3.89472 -3.13416,2.64321 z m 10.12585,-8.98787 c -0.21038,-0.83821 0.46407,-1.91677 1.33535,-2.13545 1.55652,-0.39066 1.81211,1.77731 0.28477,2.41547 -1.24556,0.52043 -1.4271,0.48905 -1.62012,-0.28002 z m 7.08233,-0.82961 c 0.12308,-0.62535 0.92391,-1.08176 1.27756,-0.72811 0.44566,0.44566 0.007,1.16278 -0.71056,1.16278 -0.46358,0 -0.62778,-0.12587 -0.567,-0.43467 z m 17.94492,-2.17877 c 0,-0.59587 0.65994,-1.20466 1.04674,-0.9656 0.42247,0.26109 0.32843,1.12112 -0.14234,1.30177 -0.6914,0.26532 -0.9044,0.18614 -0.9044,-0.33617 z m -26.09739,-3.6025 c -0.0916,-0.23882 -0.0397,-0.56109 0.11531,-0.71615 0.40312,-0.40312 1.16692,-0.0347 1.06162,0.5121 -0.11729,0.60904 -0.96512,0.75603 -1.17693,0.20405 z m 23.50447,0.0776 c -0.17462,-0.17463 -0.3175,-0.54055 -0.3175,-0.81315 0,-0.64948 0.88472,-0.50149 1.01397,0.1696 0.12623,0.6555 -0.29515,1.04487 -0.69647,0.64355 z m -32.15018,-17.315884 c -0.37452,-0.374522 -0.16259,-0.887457 0.36667,-0.887457 0.36987,0 0.5207,0.143682 0.46302,0.441096 -0.0944,0.48696 -0.5461,0.729947 -0.82969,0.446361 z"
         id="path26746" />
    </g>
  </g>
</svg>
